<mxfile host="app.diagrams.net" modified="2024-07-04T01:13:43.189Z" agent="Mozilla/5.0 (Windows NT 10.0; Win64; x64) AppleWebKit/537.36 (KHTML, like Gecko) Chrome/126.0.0.0 Safari/537.36" etag="Q6C4UGSqfQ6mtYpToeIQ" version="24.6.4" type="github">
  <diagram name="Page-1" id="c7488fd3-1785-93aa-aadb-54a6760d102a">
    <mxGraphModel dx="1400" dy="707" grid="0" gridSize="10" guides="1" tooltips="1" connect="1" arrows="1" fold="1" page="1" pageScale="1" pageWidth="1169" pageHeight="1654" background="none" math="0" shadow="0">
      <root>
        <mxCell id="0" />
        <mxCell id="1" parent="0" />
        <mxCell id="1mdNSNmWwVbFpzS0-b86-3" value="" style="endArrow=none;html=1;rounded=0;fontSize=12;startSize=8;endSize=8;curved=1;dashed=1;strokeWidth=1.5;" parent="1" edge="1">
          <mxGeometry width="50" height="50" relative="1" as="geometry">
            <mxPoint x="628.92" y="1003" as="sourcePoint" />
            <mxPoint x="628.9200000000001" y="601" as="targetPoint" />
          </mxGeometry>
        </mxCell>
        <mxCell id="nJHyJpiOqpMIGT2mlFp9-12" value="&lt;span style=&quot;background-color: initial;&quot;&gt;终端&lt;/span&gt;" style="text;html=1;align=center;verticalAlign=middle;whiteSpace=wrap;rounded=0;fontSize=16;fontFamily=宋体;fontStyle=1;strokeWidth=1.5;" parent="1" vertex="1">
          <mxGeometry x="380.75" y="332" width="150" height="30" as="geometry" />
        </mxCell>
        <mxCell id="nJHyJpiOqpMIGT2mlFp9-25" value="" style="endArrow=none;html=1;rounded=0;fontSize=12;startSize=8;endSize=8;curved=1;dashed=1;strokeWidth=1.5;" parent="1" edge="1">
          <mxGeometry width="50" height="50" relative="1" as="geometry">
            <mxPoint x="272" y="1000" as="sourcePoint" />
            <mxPoint x="272" y="360" as="targetPoint" />
          </mxGeometry>
        </mxCell>
        <mxCell id="nJHyJpiOqpMIGT2mlFp9-26" value="" style="endArrow=none;html=1;rounded=0;fontSize=12;startSize=8;endSize=8;curved=1;dashed=1;strokeWidth=1.5;" parent="1" source="nJHyJpiOqpMIGT2mlFp9-32" edge="1">
          <mxGeometry width="50" height="50" relative="1" as="geometry">
            <mxPoint x="447.59" y="700" as="sourcePoint" />
            <mxPoint x="447.74999999999994" y="360" as="targetPoint" />
          </mxGeometry>
        </mxCell>
        <mxCell id="nJHyJpiOqpMIGT2mlFp9-28" value="" style="endArrow=none;html=1;rounded=0;fontSize=12;startSize=8;endSize=8;curved=1;dashed=1;strokeWidth=1.5;" parent="1" source="nJHyJpiOqpMIGT2mlFp9-52" edge="1">
          <mxGeometry width="50" height="50" relative="1" as="geometry">
            <mxPoint x="818" y="1090" as="sourcePoint" />
            <mxPoint x="817.5699999999999" y="360" as="targetPoint" />
          </mxGeometry>
        </mxCell>
        <mxCell id="nJHyJpiOqpMIGT2mlFp9-29" value="" style="endArrow=none;html=1;rounded=0;fontSize=12;startSize=8;endSize=8;curved=1;dashed=1;strokeWidth=1.5;" parent="1" source="nJHyJpiOqpMIGT2mlFp9-54" edge="1">
          <mxGeometry width="50" height="50" relative="1" as="geometry">
            <mxPoint x="998" y="1130" as="sourcePoint" />
            <mxPoint x="998.1599999999999" y="359" as="targetPoint" />
          </mxGeometry>
        </mxCell>
        <mxCell id="nJHyJpiOqpMIGT2mlFp9-31" value="" style="rounded=0;whiteSpace=wrap;html=1;fillColor=default;strokeWidth=1.5;" parent="1" vertex="1">
          <mxGeometry x="262" y="380" width="20" height="220" as="geometry" />
        </mxCell>
        <mxCell id="nJHyJpiOqpMIGT2mlFp9-33" value="" style="endArrow=none;html=1;rounded=0;fontSize=12;startSize=8;endSize=8;curved=1;dashed=1;strokeWidth=1.5;" parent="1" source="nJHyJpiOqpMIGT2mlFp9-79" target="nJHyJpiOqpMIGT2mlFp9-32" edge="1">
          <mxGeometry width="50" height="50" relative="1" as="geometry">
            <mxPoint x="447.59" y="700" as="sourcePoint" />
            <mxPoint x="447.74999999999994" y="360" as="targetPoint" />
          </mxGeometry>
        </mxCell>
        <mxCell id="nJHyJpiOqpMIGT2mlFp9-32" value="" style="rounded=0;whiteSpace=wrap;html=1;fillColor=#b1ddf0;strokeColor=#000000;strokeWidth=1.5;" parent="1" vertex="1">
          <mxGeometry x="437.17" y="390" width="20" height="70" as="geometry" />
        </mxCell>
        <mxCell id="nJHyJpiOqpMIGT2mlFp9-37" value="填写用户名密码" style="text;html=1;align=center;verticalAlign=middle;resizable=0;points=[];autosize=1;strokeColor=none;fillColor=none;fontSize=16;fontFamily=宋体;strokeWidth=1.5;" parent="1" vertex="1">
          <mxGeometry x="282" y="386" width="140" height="30" as="geometry" />
        </mxCell>
        <mxCell id="nJHyJpiOqpMIGT2mlFp9-40" style="edgeStyle=none;curved=1;rounded=0;orthogonalLoop=1;jettySize=auto;html=1;entryX=0.005;entryY=0.359;entryDx=0;entryDy=0;entryPerimeter=0;fontSize=12;startSize=8;endSize=8;exitX=0.993;exitY=0.162;exitDx=0;exitDy=0;exitPerimeter=0;strokeWidth=1.5;" parent="1" source="nJHyJpiOqpMIGT2mlFp9-31" target="nJHyJpiOqpMIGT2mlFp9-32" edge="1">
          <mxGeometry relative="1" as="geometry">
            <mxPoint x="290" y="415" as="sourcePoint" />
          </mxGeometry>
        </mxCell>
        <mxCell id="nJHyJpiOqpMIGT2mlFp9-46" style="edgeStyle=none;curved=1;rounded=0;orthogonalLoop=1;jettySize=auto;html=1;fontSize=12;startSize=8;endSize=8;strokeWidth=1.5;" parent="1" edge="1">
          <mxGeometry relative="1" as="geometry">
            <mxPoint x="458" y="424" as="sourcePoint" />
            <mxPoint x="619" y="424" as="targetPoint" />
          </mxGeometry>
        </mxCell>
        <mxCell id="nJHyJpiOqpMIGT2mlFp9-53" value="" style="endArrow=none;html=1;rounded=0;fontSize=12;startSize=8;endSize=8;curved=1;dashed=1;strokeWidth=1.5;" parent="1" target="nJHyJpiOqpMIGT2mlFp9-52" edge="1">
          <mxGeometry width="50" height="50" relative="1" as="geometry">
            <mxPoint x="820" y="990" as="sourcePoint" />
            <mxPoint x="817.5699999999999" y="360" as="targetPoint" />
          </mxGeometry>
        </mxCell>
        <mxCell id="nJHyJpiOqpMIGT2mlFp9-60" style="edgeStyle=none;curved=1;rounded=0;orthogonalLoop=1;jettySize=auto;html=1;exitX=0.994;exitY=0.377;exitDx=0;exitDy=0;entryX=-0.014;entryY=0.18;entryDx=0;entryDy=0;fontSize=12;startSize=8;endSize=8;entryPerimeter=0;exitPerimeter=0;strokeWidth=1.5;" parent="1" edge="1">
          <mxGeometry relative="1" as="geometry">
            <mxPoint x="827.8799999999999" y="480.6299999999999" as="sourcePoint" />
            <mxPoint x="988.7199999999998" y="480.9200000000001" as="targetPoint" />
          </mxGeometry>
        </mxCell>
        <mxCell id="nJHyJpiOqpMIGT2mlFp9-52" value="" style="rounded=0;whiteSpace=wrap;html=1;fillColor=default;strokeColor=default;strokeWidth=1.5;" parent="1" vertex="1">
          <mxGeometry x="808" y="420" width="20" height="190" as="geometry" />
        </mxCell>
        <mxCell id="nJHyJpiOqpMIGT2mlFp9-55" value="" style="endArrow=none;html=1;rounded=0;fontSize=12;startSize=8;endSize=8;curved=1;dashed=1;strokeWidth=1.5;" parent="1" target="nJHyJpiOqpMIGT2mlFp9-54" edge="1">
          <mxGeometry width="50" height="50" relative="1" as="geometry">
            <mxPoint x="998" y="986" as="sourcePoint" />
            <mxPoint x="998.1599999999999" y="359" as="targetPoint" />
          </mxGeometry>
        </mxCell>
        <mxCell id="nJHyJpiOqpMIGT2mlFp9-54" value="" style="rounded=0;whiteSpace=wrap;html=1;fillColor=default;strokeWidth=1.5;" parent="1" vertex="1">
          <mxGeometry x="989" y="466" width="20" height="144" as="geometry" />
        </mxCell>
        <mxCell id="nJHyJpiOqpMIGT2mlFp9-57" value="判断&lt;font face=&quot;Times New Roman&quot;&gt;IAMi&lt;/font&gt;通信正常，&lt;div&gt;传输登录请求&lt;/div&gt;" style="text;html=1;align=center;verticalAlign=middle;resizable=0;points=[];autosize=1;strokeColor=none;fillColor=none;fontSize=16;fontFamily=宋体;strokeWidth=1.5;" parent="1" vertex="1">
          <mxGeometry x="641.3199999999999" y="411" width="166" height="50" as="geometry" />
        </mxCell>
        <mxCell id="nJHyJpiOqpMIGT2mlFp9-59" value="发起登录信息&lt;div&gt;验证请求&lt;/div&gt;" style="text;html=1;align=center;verticalAlign=middle;resizable=0;points=[];autosize=1;strokeColor=none;fillColor=none;fontSize=16;fontFamily=宋体;strokeWidth=1.5;" parent="1" vertex="1">
          <mxGeometry x="843" y="432" width="120" height="50" as="geometry" />
        </mxCell>
        <mxCell id="nJHyJpiOqpMIGT2mlFp9-61" style="edgeStyle=orthogonalEdgeStyle;rounded=0;orthogonalLoop=1;jettySize=auto;html=1;exitX=1;exitY=0.25;exitDx=0;exitDy=0;fontSize=12;startSize=8;endSize=8;strokeWidth=1.5;" parent="1" source="nJHyJpiOqpMIGT2mlFp9-54" edge="1">
          <mxGeometry relative="1" as="geometry">
            <mxPoint x="1009" y="560" as="targetPoint" />
            <Array as="points">
              <mxPoint x="1030" y="502" />
              <mxPoint x="1030" y="560" />
            </Array>
          </mxGeometry>
        </mxCell>
        <mxCell id="nJHyJpiOqpMIGT2mlFp9-62" value="校验用户&lt;div&gt;信息&lt;/div&gt;" style="text;html=1;align=center;verticalAlign=middle;resizable=0;points=[];autosize=1;strokeColor=none;fillColor=none;fontSize=16;fontFamily=宋体;strokeWidth=1.5;" parent="1" vertex="1">
          <mxGeometry x="1020" y="506" width="90" height="50" as="geometry" />
        </mxCell>
        <mxCell id="nJHyJpiOqpMIGT2mlFp9-63" style="edgeStyle=none;curved=1;rounded=0;orthogonalLoop=1;jettySize=auto;html=1;exitX=0;exitY=0.75;exitDx=0;exitDy=0;entryX=1.039;entryY=0.817;entryDx=0;entryDy=0;entryPerimeter=0;fontSize=12;startSize=8;endSize=8;strokeWidth=1.5;" parent="1" source="nJHyJpiOqpMIGT2mlFp9-54" target="nJHyJpiOqpMIGT2mlFp9-52" edge="1">
          <mxGeometry relative="1" as="geometry" />
        </mxCell>
        <mxCell id="nJHyJpiOqpMIGT2mlFp9-64" value="返回验证结果" style="text;html=1;align=center;verticalAlign=middle;resizable=0;points=[];autosize=1;strokeColor=none;fillColor=none;fontSize=16;fontFamily=宋体;strokeWidth=1.5;" parent="1" vertex="1">
          <mxGeometry x="858" y="546" width="120" height="30" as="geometry" />
        </mxCell>
        <mxCell id="nJHyJpiOqpMIGT2mlFp9-68" value="" style="endArrow=classic;html=1;rounded=0;fontSize=12;startSize=8;endSize=8;curved=1;exitX=-0.002;exitY=0.854;exitDx=0;exitDy=0;exitPerimeter=0;entryX=0.994;entryY=0.305;entryDx=0;entryDy=0;entryPerimeter=0;strokeWidth=1.5;" parent="1" source="nJHyJpiOqpMIGT2mlFp9-52" edge="1">
          <mxGeometry width="50" height="50" relative="1" as="geometry">
            <mxPoint x="850" y="650" as="sourcePoint" />
            <mxPoint x="639.2" y="581.6200000000001" as="targetPoint" />
          </mxGeometry>
        </mxCell>
        <mxCell id="nJHyJpiOqpMIGT2mlFp9-69" value="传输回执消息" style="text;html=1;align=center;verticalAlign=middle;resizable=0;points=[];autosize=1;strokeColor=none;fillColor=none;fontSize=16;fontFamily=宋体;strokeWidth=1.5;" parent="1" vertex="1">
          <mxGeometry x="675" y="580" width="120" height="30" as="geometry" />
        </mxCell>
        <mxCell id="nJHyJpiOqpMIGT2mlFp9-75" value="传输回执" style="text;html=1;align=center;verticalAlign=middle;resizable=0;points=[];autosize=1;strokeColor=none;fillColor=none;fontSize=16;fontFamily=宋体;strokeWidth=1.5;" parent="1" vertex="1">
          <mxGeometry x="502" y="516" width="90" height="30" as="geometry" />
        </mxCell>
        <mxCell id="nJHyJpiOqpMIGT2mlFp9-78" value="验证成功&lt;div&gt;设置登陆状态&lt;/div&gt;" style="text;html=1;align=center;verticalAlign=middle;resizable=0;points=[];autosize=1;strokeColor=none;fillColor=none;fontSize=16;fontFamily=宋体;strokeWidth=1.5;" parent="1" vertex="1">
          <mxGeometry x="477.18" y="648.5" width="120" height="50" as="geometry" />
        </mxCell>
        <mxCell id="nJHyJpiOqpMIGT2mlFp9-80" value="" style="endArrow=none;html=1;rounded=0;fontSize=12;startSize=8;endSize=8;curved=1;dashed=1;strokeWidth=1.5;" parent="1" source="nJHyJpiOqpMIGT2mlFp9-70" target="nJHyJpiOqpMIGT2mlFp9-79" edge="1">
          <mxGeometry width="50" height="50" relative="1" as="geometry">
            <mxPoint x="447" y="760" as="sourcePoint" />
            <mxPoint x="447" y="460" as="targetPoint" />
          </mxGeometry>
        </mxCell>
        <mxCell id="nJHyJpiOqpMIGT2mlFp9-83" style="edgeStyle=orthogonalEdgeStyle;rounded=0;orthogonalLoop=1;jettySize=auto;html=1;entryX=0.5;entryY=0;entryDx=0;entryDy=0;fontSize=12;startSize=8;endSize=8;exitX=0.5;exitY=1;exitDx=0;exitDy=0;strokeWidth=1.5;" parent="1" source="nJHyJpiOqpMIGT2mlFp9-79" target="nJHyJpiOqpMIGT2mlFp9-70" edge="1">
          <mxGeometry relative="1" as="geometry" />
        </mxCell>
        <mxCell id="nJHyJpiOqpMIGT2mlFp9-79" value="基本认证&lt;div style=&quot;font-size: 14px;&quot;&gt;是否成功&lt;/div&gt;" style="rhombus;whiteSpace=wrap;html=1;fillColor=#b1ddf0;strokeColor=#000000;strokeWidth=1.5;fontSize=14;" parent="1" vertex="1">
          <mxGeometry x="400.90999999999997" y="512" width="92.18" height="67" as="geometry" />
        </mxCell>
        <mxCell id="nJHyJpiOqpMIGT2mlFp9-82" value="" style="endArrow=classic;html=1;rounded=0;fontSize=12;startSize=8;endSize=8;exitX=0;exitY=0.25;exitDx=0;exitDy=0;entryX=1;entryY=0.5;entryDx=0;entryDy=0;edgeStyle=orthogonalEdgeStyle;strokeWidth=1.5;" parent="1" target="nJHyJpiOqpMIGT2mlFp9-79" edge="1">
          <mxGeometry width="50" height="50" relative="1" as="geometry">
            <mxPoint x="619.3199999999999" y="577" as="sourcePoint" />
            <mxPoint x="490" y="560" as="targetPoint" />
          </mxGeometry>
        </mxCell>
        <mxCell id="nJHyJpiOqpMIGT2mlFp9-84" value="是" style="text;html=1;align=center;verticalAlign=middle;resizable=0;points=[];autosize=1;strokeColor=none;fillColor=none;fontSize=16;strokeWidth=1.5;" parent="1" vertex="1">
          <mxGeometry x="450" y="576" width="40" height="30" as="geometry" />
        </mxCell>
        <mxCell id="nJHyJpiOqpMIGT2mlFp9-27" value="" style="endArrow=none;html=1;rounded=0;fontSize=12;startSize=8;endSize=8;curved=1;dashed=1;strokeWidth=1.5;" parent="1" source="nJHyJpiOqpMIGT2mlFp9-41" edge="1">
          <mxGeometry width="50" height="50" relative="1" as="geometry">
            <mxPoint x="627.64" y="1100.941162109375" as="sourcePoint" />
            <mxPoint x="627.8" y="370" as="targetPoint" />
          </mxGeometry>
        </mxCell>
        <mxCell id="nJHyJpiOqpMIGT2mlFp9-51" value="确定为远程验证&lt;div&gt;发送登录请求&lt;/div&gt;" style="text;html=1;align=center;verticalAlign=middle;resizable=0;points=[];autosize=1;strokeColor=none;fillColor=none;fontSize=16;fontFamily=宋体;strokeWidth=1.5;" parent="1" vertex="1">
          <mxGeometry x="457.18" y="376" width="140" height="50" as="geometry" />
        </mxCell>
        <mxCell id="nJHyJpiOqpMIGT2mlFp9-6" value="通信服务器" style="text;html=1;align=center;verticalAlign=middle;whiteSpace=wrap;rounded=0;fontSize=16;fontFamily=宋体;fontStyle=1;strokeWidth=1.5;" parent="1" vertex="1">
          <mxGeometry x="586.64" y="332" width="96.36" height="30" as="geometry" />
        </mxCell>
        <mxCell id="nJHyJpiOqpMIGT2mlFp9-92" style="edgeStyle=none;curved=1;rounded=0;orthogonalLoop=1;jettySize=auto;html=1;exitX=1;exitY=0.75;exitDx=0;exitDy=0;entryX=-0.039;entryY=0.414;entryDx=0;entryDy=0;entryPerimeter=0;fontSize=12;startSize=8;endSize=8;strokeWidth=1.5;" parent="1" edge="1">
          <mxGeometry relative="1" as="geometry">
            <mxPoint x="639.3199999999997" y="458" as="sourcePoint" />
            <mxPoint x="807.2199999999998" y="457.6600000000001" as="targetPoint" />
          </mxGeometry>
        </mxCell>
        <mxCell id="nJHyJpiOqpMIGT2mlFp9-100" style="edgeStyle=orthogonalEdgeStyle;rounded=0;orthogonalLoop=1;jettySize=auto;html=1;entryX=1;entryY=0.75;entryDx=0;entryDy=0;fontSize=12;startSize=8;endSize=8;dashed=1;exitX=0;exitY=0.5;exitDx=0;exitDy=0;strokeWidth=1.5;fillColor=#f5f5f5;strokeColor=#666666;" parent="1" source="nJHyJpiOqpMIGT2mlFp9-79" target="nJHyJpiOqpMIGT2mlFp9-31" edge="1">
          <mxGeometry relative="1" as="geometry">
            <mxPoint x="410" y="713.5263157894738" as="sourcePoint" />
          </mxGeometry>
        </mxCell>
        <mxCell id="nJHyJpiOqpMIGT2mlFp9-98" value="否" style="text;html=1;align=center;verticalAlign=middle;resizable=0;points=[];autosize=1;strokeColor=none;fillColor=none;fontSize=16;strokeWidth=1.5;" parent="1" vertex="1">
          <mxGeometry x="362.82" y="546" width="40" height="30" as="geometry" />
        </mxCell>
        <mxCell id="nJHyJpiOqpMIGT2mlFp9-99" value="验证失败&lt;div&gt;返回重新输入&lt;/div&gt;" style="text;html=1;align=center;verticalAlign=middle;resizable=0;points=[];autosize=1;strokeColor=none;fillColor=none;fontSize=16;fontFamily=宋体;strokeWidth=1.5;" parent="1" vertex="1">
          <mxGeometry x="290" y="493" width="120" height="50" as="geometry" />
        </mxCell>
        <mxCell id="nJHyJpiOqpMIGT2mlFp9-70" value="" style="rounded=0;whiteSpace=wrap;html=1;fillColor=#b1ddf0;strokeColor=#000000;strokeWidth=1.5;" parent="1" vertex="1">
          <mxGeometry x="437.18" y="634" width="20" height="79" as="geometry" />
        </mxCell>
        <mxCell id="nJHyJpiOqpMIGT2mlFp9-127" value="" style="endArrow=classic;html=1;rounded=0;fontSize=12;startSize=8;endSize=8;edgeStyle=orthogonalEdgeStyle;strokeWidth=1.5;" parent="1" edge="1">
          <mxGeometry width="50" height="50" relative="1" as="geometry">
            <mxPoint x="457.15" y="655.26" as="sourcePoint" />
            <mxPoint x="457" y="692" as="targetPoint" />
            <Array as="points">
              <mxPoint x="487.15" y="655.26" />
              <mxPoint x="487.15" y="691.26" />
            </Array>
          </mxGeometry>
        </mxCell>
        <mxCell id="nJHyJpiOqpMIGT2mlFp9-18" value="统一身份认证系统" style="text;html=1;align=center;verticalAlign=middle;whiteSpace=wrap;rounded=0;fontSize=16;fontFamily=宋体;fontStyle=1;strokeWidth=1.5;" parent="1" vertex="1">
          <mxGeometry x="930" y="332" width="150" height="30" as="geometry" />
        </mxCell>
        <mxCell id="nJHyJpiOqpMIGT2mlFp9-150" value="" style="shape=image;verticalLabelPosition=bottom;labelBackgroundColor=default;verticalAlign=top;aspect=fixed;imageAspect=0;image=data:image/png,iVBORw0KGgoAAAANSUhEUgAAAMgAAADICAYAAACtWK6eAAAAAXNSR0IArs4c6QAAEJpJREFUeF7tnX+MHOV5x7/P3PmcJrSwczZORIkcfHMHIUADlJS2iUJCQHX4EdpAUBAJFTH45hpSnEITIcVGiqhKgFLjnY2BBAlo+CVIa4cAIimU0FAVURoTJ/bOAm5DSTHcLFYaAjI3T7UGwpnc3bzv7MzuzM53/7I0z/PM+3ye9+O92V8j4IMESGBeAkI2JEAC8xOgINwdJLAAAQrC7UECFIR7gATSEeAzSDpuzKoIAQpSkUGzzXQEKEg6bsyqCAEKUpFBs810BChIOm7MqggBClKRQbPNdAQoSDpuzKoIAQpSkUGzzXQEKEg6bsyqCAEKUpFBs810BChIOm7MqggBClKRQbPNdAQoSDpuzKoIAQpSkUGzzXQEKEg6bsyqCIGeC7JfEJ7iiHiIdQKCw6B6GETeURHebNOWgOovIfIEFE/Ake2xavii722yLZM2vmeC1Bqt9wn0Kig+lnaxzCOBPQQUD4kTXz09OfHtvIn0RJDRevMSFflq3s2wfuUI3Abg6sj3/i2vznMXxK0374bIyrwaYF0SUAwd0fYP2pIHiVwFGa03z1GRG/JYOGuSwJsE9OHIH/9gHkRyE8SthydAcF8ei2ZNEvhNAnpF5I9flDWZXASpXfPTw2Ro0SZAl2e9YNYjgfkIiOAz05PeTVkSykUQt978AkSuznKhrEUCSQQU2NT2vVOT4myO5yLIaCO8WRVn2SyEsSSQAYFfRK9iKS7wXsmg1p4SuQjiBmETgJfVIlmHBEwJaBx/vP0XE981jU+Ky1yQ/a97atmru2f+N+nEPE4CORG4KvK9L2ZVO3NB9rsm/LAzhAeyWiDrkIANAQUebPvecTY5C8VSkKxIsk4hCFCQQoyBiygqAQpS1MlwXYUgQEEKMQYuoqgEqi2IxpdGUxPrijoct759HcRZW8D1Pdb5iLjCeVTj+Oed9TlDMi7QkxQ4uZv1iuIfYgf3zCx62z3y0su14UVyuMYzR/SLAwWhIDb7uQnIlZE/du18SW4Qng7gdpuir8fuAvTCyB+f88OonVczZQhrBfhwitqpUygIBTHePPEMjnvx896DSQn7rA+XjgxjZ1Lcr48LtkWT3iEm8W4Q3gvgRJPYLGIoCAUx20eWf47avH/lYObgF/yDt5ssZMnGHe+KZ3ZvBnCUSXy3MRSEgpjsoWedoUVHv3D+8j3XG6YPt968CyKnLRhvKV6nlhs0/xyQb5quo5s4CkJBTPbPnZHvfdIkcHaM4YsMZ0S+d4dNbes/4WyKvyWWglAQg+0jX4v8sYsNAvcKMfozaxEOjFZ5z9jWrgXhA724YKcgFCRxbwrk69P+2GRi4FsC3HrrUxC9daG8mUWLDtq1avnT1rWDMAJQs82zjacgFCR5zwjujya9E5ID945wg3ANgCsT8lZFvne9Te3XvmE6nMuPKrx1HRSEghjtTVXng+2pFQ8bBb8e5AbNhwBZ+McPRG6JJsc+bVl3IyDn2eSkjaUgFMR079z59pffdvYzaw78lUmC4QX6a6UUa6Ip7+9M6taC1p8INLMvMCWdk4JQkKQ9Muu4fM9ZPPLZF85997MLJS1rtPbfrfqcRWFA5cxoaqzzw23zPpbWW2MzoqFV3S6DKQgFsdxC8igUf/n2VxY/PtezSTc/sCHA5lica9uTK74ze1Gdl3UXD8uZCl1vudiuwysvSNcE8y5QzA8rQoFXBPgxgMcBjQE5FMAEgCUZIPkZBNsQYwsE7wfQuY5ZlEFd6xLVFsQaFxOqRoCCVG3i7NeKAAWxwsXgqhGgIFWbOPu1IkBBrHAxuGoEKEjVJs5+rQhQECtcDK4aAQpStYmzXysCFMQKF4OrRoCCVG3i7NeKAAWxwsXgqhGgIFWbOPu1IkBBrHAxuGoEKEjVJs5+rQhQECtcDK4agXII4sQ9/T3WgdsEjqOI49dubjT73280anN8Ljhz1Zwdl3R8PuBJeWmO2/T6emyWP3Ce+R2mBm6zsqFKE6AglR4/m08iQEGSCPF4pQlQkEqPn80nEaAgSYR4vNIEKEilx8/mkwhQkCRCPF5pAhSk0uNn80kEKEgSIR6vNAEKUunxs/kkAhQkiRCPV5oABan0+Nl8EoHMBenc5y7ppDxOAnkRMLkvvM25MxfEbYQxFJnXtWmKsdUlEPlepnsv02KdsbhBuBvAcHVHxM77SaDwgowG4csKLO4nJJ67ugQKL4hbD1+C4LeqOyJ23k8CxRckaP4CkH36CYnnri6BEggSvghg3+qOiJ33k0AJBGlOA+L2ExLPXV0ChRdkNAh3KrC0uiNi5/0kUHhB3CD8OYB39hMSz11dAmUQ5BkAB1R3ROy8nwTKIMh/AXh3PyHx3NUlUAZBngLwnuqOiJ33k0DhBakFYSjAWD8h8dzVJVB4QdygtQ3QieqOiJ33k0DxBWmEW6F4bz8h8dzVJVB8QYLwCQDvy2NEnV/uzqNuljUFKOz3YVTxPARbARwI4Hcl0w+Vyg6ovgAHh0MxkiVTm1olEKT5n4AcYdOUcazGl2b5y93G5zUMdOvb10GctYbhPQtTyMXxq3rXrgu8J9846bJGa//dKp8G4s8BODTdYqQNiVcNDw8/vHPVQc/tqXH71hE3GjkKsZ4DyHnp6qbPKrwgtXr4mAiOTN/iApkUxBKrbBGZWTk9OfE/8yUu2bjjXfHM7vttJRHg8cVDu/742fOPfmne2kHrKIV+RYFTLBeeOrzwgrhB898B+f3UHS6USEFssD4V+d4K0wQ3aG4DxPTFlZcj3zP6SsNoY/sBGssPINKTl/5LIEj4CIA/MB2MVRwFMcaliD/U9id+YJrgbgiPhYMfGsWLfjKaHL/TKBbA6Ibtp6nj3GUa301cGQR5GMAfddPkvLkUxAyr4JFo0vtDs+A3o9xG+EMojl04T3ZE/pj1s4EbNJ8HZIntmmzjiy9II/wXKD5k25hRPAUxwgTFldGU91dmwbMEMXmRQfW70dT4x61rB+HtAE63zbONL7wgtSD8ZwGOs23MKJ6CGGGKZ3Bcmp+/MXoVLuUMavWwLgLfqIEuggoviBu07gf0+C56nD815XByWcscRY02WC8Wk5KTyfrT3kW2FoQP9OI9ohIIEt4L4MRc9kHKweeyliILAjwW+d7Rtn27QetpQJcn5S0SWfbc5NjOpLjZx2v1cKdI/l+kK74gjdbdUF1pA884loIYowLk/Mgfu9Y0YTQIv6zAZSbxnTce2/7Y10xiOzFuEF4HoPOGZO6PwgsyGoSbFDg5FxIUxAbrVjg4I1rt/SQpad/14YqhYbSS4mYfF8c5fnr1iu8n5SwJwlNi4J+S4rI6XnhBavXwH0VwalYN71WHgthi3arifKk9ueI78yXWGk+eJBpvti0MSBPAlfM+S63bOlJbOrJGBH9jXzt9RuEFcYPmnYD8afoWF8ikIKmwCrC5c3EtqjtmYok6RWRYjhHVzpw+kKrom0mPKfQ2EdmC3XgkFhzpDOlKFfmoaE4fOVpgwSUQpDevd3c5VKYPKIESCNK8BZAzB5Q/2yo4gcILMtoIb1bFWQXnyOUNKIHCC1ILwhsFOHtA+bOtghMovCBuvXkDRM4pOEcub0AJFF+QILwewLkDyp9tFZxACQRpbQS051+1LPjcuLweESi8IKNBs6GQ1T3iwdOQwF4ECi9ILQg3CDDFuZFAPwgUXhC33vp7iF7QDzg8JwkUX5BGeBUUF3JUJNAPAsUXpB5eAcEX+wGH5ySBwgsy2mj9rapezFGRQD8IFF6QWhBeJsCX+wGH5ySB4gtSb35VRC7hqEigHwQKL4gbhJcC+Eo/4PCcJFB4QTgiEhgkAjJIzbAXEsiaAAXJmijrDRQBCjJQ42QzWROgIFkTZb2BIkBBBmqcbCZrAhQka6KsN1AEKMhAjZPNZE2AgmRNlPUGigAFGahxspmsCWQuyH7XhIW9T3jW8FivmATS3Dxovk4yF8RthGuhWFdMdFzVoBNIe3ctCjLoO4P97SFAQbgRSGABAsUXxOROqRwxCeREgILkBJZlB4NA8QXhRfpg7LSSdkFBSjo4Lrs3BIovCK9BerMTeJY5CVAQbgwSKPWrWLwG4QbuIwE+g/QRPk9dfAIUpPgz4gr7SKD4gvBPrD5uD56agnAPkAAv0rkHSCAdgeI/g+T4PogCD6bD1rssAQr8fRjdopAfiWobIh8DcEhGZP4PwBaBbokh7xDFCRAsy6i2VZniC5LnNYjGl0ZTE4X9romb438OVrvkN4N/CsGF0aR33+xDoxuaH4gd50sC/UTa+gJsdlTWPD811tqrdrD9EwpnLYDfS1s7TR4FoSB2+8bgP5X9GuH7HcV/2BUGRPXPpqfG71oor9ZonSmqt9jWThtffEHy/F/UYNhpwWaRV7RnEIXc2PbHPmvSm1tvfQqit5rEdmJUZHV7cmyjSbwbNDcC0pNbg1MQPoOY7MlOzC91yHlv+/wV/22a4NbDRyE4OjFecX805Z2QGPd6QC146nDBzI9M47uJoyAUxHD/6KORP36MYfCeMLcRXgvFKoOcqyPfs7pRqxuEPwZwqEHtrkIoCAUx3UDfiHzvc6bBnbhaPfRFUE/KUeDstu/dnBQ3+7gbhLcDON0mJ00sBaEghvtGr4j88YsMg/eE1b7+5EqJ47uTchTOSW1/RWLc3oK0LgfUaj1J65jrOAWhIEb7RoGb2r73GaPgX18rNC8SyOWJORqfF01NXJcYNyvArTfvhshKm5w0sRSEgpjtG9HvR5Pjx5sFvxZVC8IbBTg7MSfFq4lu0Hoa0OWJtbsMoCAUxHgLKXBZ2/eM7ji874bwyCEHDwD4HZMT2GxEtx6eC8H1JnW7jbFZl8m5sv9lRb4P0nn3uDAP07u+ukF4L4ATLRb+bOR7ByTF77M+XDoyLFsAfWdSbBbHKQifQaz3kUJWtv2xe+ZKXBK0jooRn5fyjbytcHBGtNr7yVy1Rzds/ygc5wIFTrFedMoECkJBUm4duU1VH9o9gztGRrBUZvQYFRybUoxZa5BfAfFNgHwv8r079ggnegS0UxtWLzOnbGyvtGoLkgVB1hhoAhRkoMfL5rolQEG6Jcj8gSZAQQZ6vGyuWwIUpFuCzB9oAhRkoMfL5rolQEG6Jcj8gSZAQQZ6vGyuWwKFF2S03jxHRW7otlHmk0AaAjMzMwft+vzBT6fJnSsn889ijdabh6jInB89yGrRrEMCcxOQHZE/9p4s6WQuSGdxvfpoc5YgWKv8BAT6rWl//KwsO8lJkOblgOT+7bEsQbDWABAQnBtNet/MspNcBOkscDQINylwcpaLZS0SmI+AApvavndq1oRyE2RZo7X/bo3vA6Snv6yXNSDWKwcB0++92HaTmyCdhSz5xrbf1leGLlHgr20XxngSMCEgIl+YnhxbbxKbJiZXQd5Y0Gij9ZEYepoAE1AcDODANItlDgkA+BkE2xTYDsit7cmxf82TSk8EybMB1iaBPAlQkDzpsnbpCVCQ0o+QDeRJgILkSZe1S0+AgpR+hGwgTwIUJE+6rF16AhSk9CNkA3kSoCB50mXt0hOgIKUfIRvIkwAFyZMua5eeAAUp/QjZQJ4EKEiedFm79AQoSOlHyAbyJEBB8qTL2qUnQEFKP0I2kCcBCpInXdYuPQEKUvoRsoE8CVCQPOmydukJUJDSj5AN5EmAguRJl7VLT+D/Aarj1yO2msmjAAAAAElFTkSuQmCC;strokeWidth=1.5;" parent="1" vertex="1">
          <mxGeometry x="603.5" y="269.5" width="63" height="63" as="geometry" />
        </mxCell>
        <mxCell id="nJHyJpiOqpMIGT2mlFp9-151" value="" style="shape=image;verticalLabelPosition=bottom;labelBackgroundColor=default;verticalAlign=top;aspect=fixed;imageAspect=0;image=data:image/png,iVBORw0KGgoAAAANSUhEUgAAAMgAAADICAYAAACtWK6eAAAAAXNSR0IArs4c6QAAIABJREFUeF7tnQl8VNW9x//n3jtbtkky2VkDKkhAxcrSAoqtyqv63mv1qVX7UVt9z+XZKlZJAAnUuvRZd7Ea1Apan11eX31Vq4IQEEIA2UPYEiAJhEz2fZm5957zemYSmCSz3Dtzb2Yyc+7nwyfAnPM///P7zzdnPxcBe5gCTAGfCiCmDVOAKeBbAQYI+3YwBfwowABhXw+mAAOEfQeYAsEpwFqQ4HRjuWJEAQZIjASaVTM4BRggwenGcsWIAgyQGAk0q2ZwCjBAgtON5YoRBRggMRJoVs3gFGCABKcbyxUjCsQUIL/fsH2GjMkCxBE7wpxd5GW72Gux3//PV/TESLxZNVUqEDOArPuy5CHguNcBCDdUIwTQThDYgYAdELITjOuBIDv0g0R/crJk//GiBXaEEFGpMUs+ihWIekDe+WJ7qoGD1YDgdk3i1A8SArATAvUAhEJjlzGxA8fZgf40Wuw/uXpmmyblMSNhVSCqAVm7ftu/AKDVCKFxI64ygl5XKwTEToC4WiSEiN31f8jdxeMFbE9xZNivv/5Cx4j7xwpUpEDUArJuw/bnAeAJRSqEP1ELAjc4BEO9u7tHXN09+hNxvB3Jsv2uRfMawu9qbHkQdYB8sLH0cozJagD4dhSGUgZwj5OAjpP6AQLE2ZELJGznsGDvi5Ps986f3xmF9R/xKkUVIGu/Kvk5IujVEVcxAgtEAF0UJjpOIp5dO8L1Tz7wds5A7GOg13711VdLEViFiHApKgB5/8uSDMKj1UDglohQdfQ50Qh0wsGja+dukTj35IMg2BEm9ruvmdM8+qoWmsejHpD3N5TeRMDVpcoOTQqWO5ACCJATk4GuHbhm71xjJTodTjg7XV/iiMEuyy31dy1a1B3I3mj4fFQD8v6G0pcIkMWjQeiY85FAB510cM/agR0RZMcc/bcbJDodLhFcf3r7V/ZVq1bhSNVnVALyuy+3zhE4/nUCMCtShWV+KVeAANTTLp170gHswCHXpMPA5AP9nHdI9jtvXNCq3Ko2KUcdIGvXl/wCIfSCNtVnVkaZAn3u3Q7ETgi6pL6h7i/5P775Lj3rMGoAWbdx+xiCYTUC+IGegjDbka+AKIr7yw+XWbu7u36zZmXBm3p6PCoAWffVttuAoNX/WBVP01MMZjvyFWhpbd1y9Oihq6inhJCHYh6QdRu2vw4AD0d+6JiH+ipAmk6eOllpt5+dO1BOTAOydn3pPIRc07eX6Ss8sx7pCjicjm/KDx0Y2+dwDJrKj1lA1q0vzQdEfh3pgWP+6a9Ac1PT5mMVRxZ6KynmAPlwY8kECdOxBtyov/SshEhWgGBypuLE8fqmpoZv+fIzpgD54KvSOzFxdamSIzlwzDf9Fejt7S0tKztwsSSLfr8LMQHIquJiYZJkfp0AeUB/6VkJka5AfYN9y4kTFa5ZqkBP1APy3oatC3lwrYhPDyQG+zy6FSAYVx49dqSnta3lEqU1jWpA1m4oeRIB+pVSMVi66FWgq6drW9nBA7MJwUY1tYxKQD74YvsFmAc61likRgyWNjoVqK2t2VpdU70gmNpFHSDvry+9h7jXNuKDEYTliR4FZFkuP3y0nO/saJ8abK2iBpD3iovNSDStRgjuDVYMli96FOjoaPv6UHnZlaHWKCoAWfdV6TXgnr6dEqogLP+oV6C7uubU/traM/O0qElUALJ+d1kxxngaJmCXsNwqinKvjIkkYSLIWI4nBFIIQA4ApGohGrMRmQqIoriv/PCBlJ6e3olaeRg1gACA160Cg4QiuEkiUCdKcqssk26nLEsyxrxMiIUQnEoIykIAmVqJy+yMnAKtbS2bjxwpD/wdUOlSbAGiSBzULMmSXZRxs4RxlywTUcKYwzKxECApGJNMQDAGAEbFNn5FVR7ViUjTiZMnTtTX183RoxoMkOBUbZMxqRWx3CzJuFMUsShhGRECFkxIMiEkHcAFkao59+Bcid1cTqdz18FD+8c7HY4svVRggOilLKAOTHCthEmjJEmdooQdEsFIluQ4DJBECNCDWXRcxKajg4iBvx24QZjzmYUBoqWa6m11YwKnJYwbZRm3i5LkEDHmZBmbCYFEQoiNAMkGQGxzZb+2hJDTlZXHGhqbGn3uwFUfBt85GCBaqqmDLQTQKxNyWsakXpJxuyRhhxPLHJaxCRNIcI+LcBZCiHbrovrp6+vdfqBsf54sSdaRqigDZKSU1rccJwCqFiWpQcakVZRlUZIxyBgbZUzi6bgIADL6u3T6eqKTdbu9bsvJU5WKduBq6QIDREs1I9gWIUQGhKpkjO2iJHdIMnbIGBMZE4OESRwQYsUEpwMgOi4SIqUqmJCKY0cP96rZgaul7wwQLdUc/bbom62qZEzqJAl3ilh2SBhjCWMeY2zBGJIIEBsQ1+SCRe/qdnV1bSs7tH82ISRss4EMEL2jHJ32a2QMdlmWOkSM+yQJyzLGnESICWM6uSDbgKAsQJAUZPXJ2bNntlZVnwp5L1WQ5Z/LxgAJVUGW34cCpJYQVC9KUoeESY8ouXYtIJkQIyYkwbX9hxC6a8HmaUCLHbhahoQBoqWazJY6BRA0EEJn50ibJMvdTa1tibv2fKPJJkN1jvhOzQDRSklmJ2QF7I0N+0q+2T0zZEMaGmCAaCgmMxWaAgyQ0PTzmZtud1e0m3eIhT922TbbZcGUwmNHpiBymcgRl8HLyTZezDYhwraA6BQvX2YZIDoJHgogh0SLzy3SCKBFANyQwJO2FCQ50nkRsgTJnMk5rWmClGkBnKJTlWLSLANEp7DrBYgSdxFAo4BwqwWR9hQk96bxTpIpSMZMXkpK55zpiRymK9jsUaAAA0SBSMEkCScgSvylEBmANJk40mXl5L5UXpKzOKchk3cmpgtyWgqS6MJbzD8MEJ2+ApEOiJJqI4AGAyKNZoS7EjjZmYywnMk7hSxejE8XRJuNk3K4CNoCoqROatMwQNQqpjB9NACipKoDEMUh3BGPJKeVw8TGS3w2L1rSeTHVxktZBiBxSmxFYhoGiE5RiRVAAsknJFv2GIwccJJk4EQSF4fFzmTs6MnADjmVTi7wzuR0TsoyIxLsFpBALoT0OQMkJPl8Z2aA9GuDAEw5yfQtrUNn13oJQA1g0gSS7EAOMR4k2WaSpK5ELLancqKcyol8Ko/NqUhKSuOljAROHrQFRKfQDTLLANFJZQbIeWGF5Lhv+Hij2ldXnyYyaQCM24koibKIzZwoZfMSxmYitidxpM+KJGwTRN6GJLNNkBOsINqsPNb0BhgGCANEJwU8zCIEphxrFwAkaFRYCyGkDiTcRmTSh0UJgYgt2CmlA5YTDIS0WjjSmYhwXzIn4VRe4tN4yTTT2D1bbfkMELWKKUzPWpDBQhlS43dyFoMu1+AMCYkDCKkFjFtkifQQUSIgYpOpt8+8NPms6vc+MkAUfuHVJmOADFGMQ2DKtvYBgFmtliGnJ1DB17V0M0CUK6n7BWsMkOHBMNgSdnBm4dzrjJWHK8SUDBDVAsY8ILNSBcgwcZBm4mB3qwjl7bJqEdVmQBwCY45VBgK82rwhpWeAqJYvZgHJMnNw90Qz/HDs4CPVFJD3TvXBtiZRtZhqMhhs8Ts4s2FkWxEGiJoQudLGJCDJBgSvX54AFyb6/gX+zsk+oH/0ehDHYWN2EqeXfa92GSCq5Y5JQH59STwszDD4FavJgeGeXV1Af+r10FZkXpphbpoAYDMAlPcAnHAAtEg6lcgAUS1szAFCxxt/W6BsN4eerciCdAPcOcGML0vmh7UiK2sBNneojmXgDAyQwBoNSRFzgNAxR/5UZXsGPz3rhKcP96gWNVCGy1MEeGVmAhj9dLCWnQEo6QxkSeXnDBCVgsXgGEQNIDubJXhkH1341u6J4xGsm5MI4+L8Dz/29wA8Uq1duS5LDBDVgsZcC3JlugGev1TZkfY/1DjgleO9qkX1l4G2Hr/9lrKdJgWnAUq15JMBojqWMQdIihHB27MSYawl8ATS4n3dUNqs7XTvfZPMQP8oeV6oA/ikTUlKhWkYIAqFOp8s5gChVb95rAmemOr/+toPqhzwRqW2rQctWw0g7zUBrG1UHVPfGRggqsWMSUCUQPK/Zxzw/FFlgDw1PQ62NIqwsT5wa6MGkKWnAbazLpbPL3VMXxxH78Xyd+2P6l8FXjLMtQkw3SrA1CQeJAzQ4sSQaeZgXpp7jeRne7vgmwCLEr+cHgeLstyr8UsOdMPXjf4hSTIgWH+VsnfM3FQB0KzlmghrQVR/bWK2BfGlFN2C8uHcRIgXEHRLBL63ud2nqE9Oi4Mbc85vVWl0YLippAPEAGuLJd9LBj6A8rqshTBAGCCqFfCS4Z/+0SKsmu5eK/G1FrJkqgVuGmtypVle1g3PzHDPjH1pd8LKQ77XTmjrQVsRX0+dCL1v1INlq9ZrILRABojqrwdrQXxIVnBxHPxgjLt1eOJAN2z16DotvsgCt413w/FUeQ/8vc7pGvTTwT99fnW4Bz476xxm+a/zkyDb7J49KzzUA+vtTqAr6rePN0FdL4YmJ4a/NZKapgTLeNWRVJKBAaJEpUFpGCA+JMswc/DazHiYGM+7ukwLNrnnWx++0AI/nuAG4b+O9sJfzzhcf6ddJto1o+klAvBPW9qhi/6l//n93ES4IMG9OZKuztOWyddjykzcDQJ/hepoBsrAAAmk0LDPGSB+JPtepuFc12lDvQhnemT4Sa57DYMuINKFRM9nZooAb/YvAu5qkeDne91TUEVXJMClye5XC9KZMTpD5u/hLYbjQmr8RaqjGSgDAySQQgwQtQo9cpHF1QXyfOj6CF0n8fbck2uGBya7IaIwzE8T4Dv9s2LeoPLljzHLugfxSNv3jTNA1IY/Ns+DqFGJdrWenRHnmg6mz9sn++BdP+dELDyCZ2bEnYNioKw3Knrhg2r/LYenX5zZcMRgi79Yja8B0zJAAko0NAHrYgWQjHap7u9vEWjS7U2ia9Aunx9eDLMwxya4umYJglveNSf64Hen1B++MmVb9wGHtHurEwOEAaJaAT8Z6GCcDsrpU9wgwtX9h6x+X+2A1RW+V9kL8+Lg+uzz6yNKxh3e3ODijGWGlLgZmtWJAaJaStaC+JDsR+NN8OhFbjjo+fQn9nfD4x5TucsOdsOmhuGr5p7TvfTAFd1a0uDAsPxgD5S1q18WN2ZbDyAOXao6st4yMEBUy8gA8SKZ52bGHc2SawuJE7v7VJ9faQW6I5iuW9y1sxM6PaZyf36hBe7onwJ+9XgvfFTjgHdmJcJ0K+/qmj22v1t1gPg4434hJU71RW9eC2KAqNafATJEsn8dY4SlF7tX0Xe3SFBwsHvQeobneY69re4Wgd6EIhICP+2fAvbsUuVYOPjfee4jvuuq+uDNyiDGIjnWQ4DQdNXRHZqBAaJaQgaIh2Q3ZBthRZ4bjgNtbjhancNH4xsXWl17tbw9v63sg/erBkPgCV3+gW7Xzl81D59g3CNY40Kf8mWAqJHdlZYB0i8Z3ZFLd+YOtAhLD3a7xg5DH3pdEL1sztfz0J4uGGhZPNMM3KRyokuG+3d3DWqVlETNlJN8GBBMU5LWZxoGiGr5YhIQOoa4LFlw3aZo4gDq+vC5FfNjnTLQAXht73A4vm0zwMsz/R/XpXBQSIY+kxJ4+N2sBDDzCL6oc8IqesePiodPMO0SrBbVt7IPKoIBokJxd9KYA4QOwG+fYPJ65Jb+dl9W1g3V3d73q3ue/fCn9NyvvJ+Tpbt/6S5g+jxzuAc+8bMfy5t9Y471OEIo+C0oDBAGiD8Fbh1ngsem+D5qu5+OOw50Q5vofRVwxbQ4uMHj/IevsnwBQtMPQEY3MtJZsLNeWipfdvkkc6mQaP626igPZGCAqJYuZloQurr96szAt4n8X60Tnjvivfuj5Lisry7WQGTyrLyrO0cPZtGpXzqNfLBdgqMdyi7NNuYkn0AIJquONM3AAFEtW8wAQi+qfvACZbeJXLN58Fb1AVXpzNU7sxIgNz74O33/JccIy6YNv7iupEl0dbtavMyaeUZVSDSX8EnmeaojzQAJSrKYAYTeRUXXMJQ8t2zvgNM93sch9F6t5dPiwOrlVGCgq0o9d/p686OyS3YtJjb0+T+za8yxViOEJiipCxukq1ZpUIaYAUTp+IGq8x+7u+Bgm+9tIfSSB7oFns5qOTBxjSM+rHb4vbCBHrP9eH4S0JsV/T109Z2uwvt7BKtlK59gWqA69KyLpVqymAGEdq9oN0vJ8/2v270uECrJ6yuN5zpLIDvfLW6HHn/bhQHANCa59h+778cEssVaEFUKDUscM4DQ3/prZycGVOtQuwT3faPlZVTuItV08W7d3gE1Prp4AxUwJFu2cPGmqwJWyDMBa0FUyUUTxwwgtLKeFzF4U4pOvdLLqvV4DZuaLp6v1fihPpvGJNcDgPL3oTNAGCCBFLhzggl+1n/GwzPtqW7ZtZEw0MVvgez7+lxNF09JF4uWIyRbNvPxpoWKfWKAKJZqIGFMtSADlabTtPRCBnqMlm5bb3Zi19Z0elGcXg8tk04R+9rkOFCuqi4eAjDlJLcAQKoivxkgimTyTBSTgKhWSaMMgRYaaSu27GAP0J9KHyHFUszHma5WlJ4BokgmBohqmbTL4AsSuoFxXZVDFRwurxCSTDlWOi8ceAaCAaI6kKwFUS1Z6BnGx3EwNUlwbTep73N38ejhrGAfITV+E28xfDdgfgZIQImGJmCAqJYs8jIghHqMOVZ6p6n/hR4GiOrgMUBUSxaZGQy2hI2cWfieX+8YIKqDF7GAbOpNguI+Za9rVl3raMzAozZjljUJAfh+txwDRHXkGSCqJYvcDMb0hI3I6KcVYYCoDh4DRLVkkZsB8VyDMSspw6eHDBDVwYtoQNoJD+1YgHbMQxumrxXQ3V3VAkZaBkN6wkbOVyvCAFEdLt2/cet3lxUDgPLtED6q0E24QbBQaDzh6cS+DzGpVmUUZ0AG/owxI3Gs1yowQFRHdtQAEqhmrVhwtTJucNzwnP+3AI4Yan2MGYkbkYEfPqPFAAn0NRr2edQA4q/m9Hxek2yA1mHgnAdJtXIRnAEZuFPGjKTcYS4yQFRHLSYACaQKbV2asQGa5cGtzkAL1Et8z5wGsh2uz40ZiZuQgR+8us4AUR0OBogCybowdw4gb62QrP+xGgVeDk6CjPxxY3ri4Du0GCDqdVSdQ2UGrQbpKosd0eRtWIAmWYBmLLhaoXPjICIAhStcjyEjsZgz8Od3+jJAVIeCtSCqJVOXgY5/mmUDNPXDQyGiXTcKFQVJ1HHygDMJ5Ya0hLxzHjNA1AUvko/cqq7JKM3gJAia+sc/AxC19MPTocHUtTErcTPiefc0OwNE9bdk1LQg6SmJ+7NTk89detvc0S00tXZOdkhitupaj6IMdP2HzsANdN/cXTkDbsU8cRIUcPGHMxv2G2zx517Aw59t2b80+azqF/LYGxv2lXyzW7v3JWoQA0LIQ2tWFrypgSmfJiIeEJNRqJ89dXK12WDwerN5fWt72cGTp7V7j5+eautgm3bXBrpwjbLgqJONXU1Y4HowlzzQQ0A8qkECX8ubhA5DZ08mA0R5ICIekIWXTjtkEDi/b1fqE8Wvtx48dqXyasdGSnrCnrY4DdjQfFo0nT0tG3uaZMHEAFEe/4gGxGw01C2YMUVRF6qytn7TKXtj4FN1Q7RJio87MDHL1jrw33XN7fGtnV1TJRkHPsKqXOdRn5J1sXQKYSjTvHTccdmkCYr6y/Vt7ZsPnjitZs9X87y8i47HmY3DXidAAM5UnLHXVdc3zdJJllFnlgGiU8giFJCOhZdevNMg8Nf6q3ZVQ9PXFaftIXfdXl279kDZ8QrXnUIXTpxQe/Oi6y66YMLEC3WSXBezDBBdZAUIBRDq0ndnTjvDc5z33akePu8/Wb2/sbVTUWuTnBC3fdaUSd8JVGVCoHpL2ZEEUZRtgdL6+vzRZ5/ZWVffMMfzcwSo/cE77qi4as7sK4K1O9L5GCA6KR4qIMnxcTVXTJ2UigB8vv2ms7evZMfhSsXvzJg2YWzxmLRkRXdJqQFvqITflJXtf+Gdd7xCOyFnzLbn85fMH5pn6+7dOz/esL63vbM72ZoY3/aDa6+zLLjiikGA6RQqv2YZIDqpHiogA25dMnnc5nRrUi7n8V4MQsiZhvaOSpVjDxifYds2ZVz2sC+nNwn0AoTn+Lr/fvmlQRMQL7+3dvOO/fuGjaMWzpm79cE7blf/ugMNY8oA0VBMT1NaATJgkw7cB/6utEs1tGp0bWXB9KmAUMCLn3s27TuMZIx9v9gwgG63L158GmM8bmiycdk5f3ihIP9Hnv9/x+LFDTLGXo/MvliwtHZsdtaw1x2UHTu296vtpR3UzjXf+XbSjClTLtcjlAwQPVSF0McgOrkFtEXKTLb6nfWqa27bfKjqjJqZsWHuHj9VVfbq+2u7m1pa5w58mJlm2/7ak4XjAMEgcO56/PGjDlGc6q3Oj9933/5ZM2YM6q4tf+nFHZXVNefs0nxzL5u5efFP7gnJZ2/lM0B0+iZq3YJo6WaWLXnH1LFZiQZBOL+hDwBECe8/ZW/sqa5vDDiQV+rPqdramqaWlpa01NTU3DFjxnvL56uLRdO+8+yzTYnx8WkD+f78+Rd7/ueLz7/lzc6Dd96xa+HsOaG9U32IYQaI0kirTBfJgAxUxSjwrdbEuOpQu24qpfGa/JGnf1Vqb2watDZz3fz5G++95ZZBR2j9wXTB+Amlz/ziseBfF+3FMwaIFtH1YmM0AKJT1YM2u76kZF/58Yp2auAH1107yVuLU7pv395X1q71Ot6YNG7chucef9zvGo9a5xggahVTmJ4BolCoIJK9++c/b1y/bduglsVgMFQ+/ehimDh2zAVBmPSZhQGipZoethggOgnbb5aObT5ev+Ek/WeGLdU07/JvpWsNB7XNANEpjgwQnYQdYbMMEJ0EZ4C4hT1jt1fUNTZ2Z6enx4/NyhpV+7BYC6ITHNRsrAPS0Nxsf2r1GzWNLc3npl3TU227Ch/+z/EZNluWjtJrapq1IJrKed5YrAPywIoVh1s7OqYNldeamLR3zdO/8joL5RCdTdVn69onZGdPNhmNOkVGnVkGiDq9FKeOdUBue+QRn1p5Wx3vX9+gC4D0wFZLTkZG+T0332y7dOrUYZApDoIGCSMQkH0kM3nOmvvvFzWonk8TEX2iUM+Kj5TtnxYUlHX39no9Mz8UkL3l5Uf+a82ai7359tSjj56ckps7aaT8HlpOJAFCAJyER3PeXr7k3L48vXRhgOilbL/d4tLSXUV//MOFhECKZ1FZ6Wmlrz65YtBqt7/VcW97rDq6ulp/8+67+46fPOk6ahxvsey55frrnd+/8kpNV9EjbZCOCPz4rZX5H+ocOpd5BsgIqFxZU3XsD5981lFVe9ZAi8sdN6Zz+YMPDdu+rhaQe5bkH+119A3b3HjfrbfuvHbePE3PkERMC0LguaKV+ctGIGwMkJESWWk5bV1d9odXreoSRXHYKviLS5dWeE4P+zuMxfN8zX+/9JLXDZFKfYnELhYB+Nuawvx/DbYOweRjLUgwqumYp+pMbeVr769tra1vcF0YkWmz7fuPH93GT79oyiWexfoDhKb746uvaupluFsQBFDJC/LcN5Yta9a0YgGMMUBGUm2Nyyp4/jfbTtWeGXYyMis9ffOrTz6p6ZmQcAMCmFxVtKrga40lDGiOARJQoshOQMcte8oPjR3olqXbbDtWPfyz8WmpKTlaeh5mQB4sKsx/S8v6KLXFAFGqVISnO1NvPy1KMvF1GCtU98MFCAFYvaYw/2eh+h9sfgZIsMrFWL4wAVJcVJiv+rZMLUPDANFSTR+2KqurKv7y5frjFVXVrksXbli4sOWH110b1sCrrXYYAGlAGM95a9XSKrW+apmeAaKlml5sbdm1c8+bH350AQFi9fxYr8sV9KrOSANCCLlxzcqCz/Sqj1K7DBClSgWZ7rFnn/lmYMp2qIkf3XhjyQ+vvXbYhXdfbS8tKTt2zLXHaGZeHr9w9qyw3olF/RhJQBCQ/LcKC54PUnJNszFANJVzuLGn33hjU9nx4167U95aEW+r6dbExIPLH3ooeUJOjqaLf2qqPnKAkPeLCgvuVuObnmkZIHqq+4/xhr8FvV/ce9/22ZfMOHe10Jk6e+0vfv3csMvhqIuXXjx1y7IHHrxqqLud3d1Nn2/5+mBtfT03JjMTf/+qKy/xvB5Iq+qNCCAIdrdMyZ3751tvlbXyO1Q7DJBQFVSQ/6NPP930ycaN0z1vTfTWeviDyWgwnvjghd9M9iyusqp666rXX8sSJencCUVBEE4/cvfdePYll0xQ4JriJLoDgqBXlri57/zyiYOKnRqBhAyQERB5oAgKAP37+KzszMz0tGEvBurq7uq6d9lyr5d0Czxf8eFLLw06qvvvTy7f3dHZNeyGeJ7jun733HPIbDbHa1U93QEh6I6ilUs+0spfrewwQLRSUiM7n2wqLvvo009SZFk+98oHgeer7r/9dvuVs2YNumb09sWPncH4fDpPF7wdxgrFRX0BQU8XFS5ZEYp/euVlgOilbAh22zs62j7b8vXR+qamvsy0NPMNV1051ZqURF/KOehZ/uKLWytrarzOcA3d/RuCO66s+gGC/lpUuOSmUP3TKz8DRC9lR8Au3fn75Csvw9Dt8WMyM7e9tGyZotc7KHVTJ0COW7BxziurFp97vbdSf0YqHQNkpJTWqRwKye//7+PWgcNYi+bPd9xy/fc1PSylVwuCAM1/q3BJiU7SaGKWAaKJjNFvRPsWBN1fVLhkTaQrxwCJ9AhFiH9aAkIAXltTmO/7upcIqTN1gwESQcGIZFc0BGRjUWH+NZFcV0/fGCCjJVJh9lMjQOqITOau+WVBTZiro7h4BohiqWI7oRaAYEKuf3tlweejSUkGyGiKVhiS5qLkAAAD60lEQVR9DRUQhODxt1bkvxjGKgRVNAMkKNliL1NIgCB4r2hF/k9Ho2oMkNEYtTD4HDQgBHYVrcynW2RIGNwOuciRAiQXADTdXRpyzZkBVQoEAwgB6CZA5rxdWFCuqrAISqw7ILSuhBD0+Z5DkwSOmwiY5AIhuYAIhSYXAZpIAEbNezIiKHYj6kowgCAgt71VWPCnEXVU48JGBBB/Pv+pvNyY6oALCMa5MiG5HEITAYEbIkAUomGb9DTWgJlToIB6QMhTRYUFKxWYjugkYQfEnzqf7N4dZyaWKcDhXELc0KB+gFz/BrBEtLpR5JwaQAiQv6wpLPi3aKh+RAPiT+ANu3dbJdk4jTdwE12tTT9ArlaHQ/T/uGgIUKTUQSkgCOCIQbbMff2XP++IFN9D8WPUAuKv0l/tPGJDBpKHJWky4SAXaKvjbnHoH69nvkMRMRbyKgUEQP5OUeGy0mjRJCoB8Recz3aVZxkEKQ8wd6FrosDV8iBX140ASYuWwGpdDyWAEMD/vqZw6Ttalx1OezEHiD+xiw8cGCtJfB4hhL6UhrY8/ZMFrpbH61nxcAZvJMsOBAhB5OU1KwoeG0mfRqIsBohClb/ceSAXBC4PEZLnanXolLWr2+aarna9OSqaH/+AkPVFhQWLorH+DBANorp+3+ELwSlPJzzJQ8BNdq/zuFqdsF30pkG1BpnwDQipRZxxzltPPlardZmRYI8BonMU/r6jfJogyHkIoTxC0EWuFoe2PAgydS5aU/O+ACEILVqzYsl6TQuLIGMMkDAF409/Inzq5EN5EiHTOYLyAMHF7l0Fri5bxC2OegMEIfTYWyuWvBwmCUekWAbIiMisrpDi4mKzM8mWx2Euj3CQBxhPd08YuFoeszpr2qQeBgiBd4tW5t+njfXItcIAidzYePWsuLw8wdkLeUDwdADi6roBAH0rLm15dIvnIEAI7Chama/5u9gjMRS6CRqJlY12nz7dejDFZOHyCMJ5iKA8DDCdQ3ARIaEvjp4HBHXwiMz97Yr8I9GuJ60fAyQWogwAf9+7N92ADHkgkekEoTwEKI8AmQYANiUSnAMEwS1FK/L/R0meaEjDAImGKIZYh/V79+YQ2ZDHcXSmDfIA8HQCFCJIHDDtBmTPx0WFS54KsbhRlZ0BMqrCNfLObth9aDwFp6K66sYHfnjDf468B+EtkQESXv1Z6RGuAAMkwgPE3AuvAgyQ8OrPSo9wBRggER4g5l54FWCAhFd/VnqEK8AAifAAMffCqwADJLz6s9IjXAEGSIQHiLkXXgUYIOHVn5Ue4QowQCI8QMy98CrAAAmv/qz0CFeAARLhAWLuhVeB/wcrTWwT3Ma4TQAAAABJRU5ErkJggg==;strokeWidth=1.5;" parent="1" vertex="1">
          <mxGeometry x="421" y="263.5" width="69" height="69" as="geometry" />
        </mxCell>
        <mxCell id="nJHyJpiOqpMIGT2mlFp9-3" value="用户" style="text;html=1;align=center;verticalAlign=middle;whiteSpace=wrap;rounded=0;fontSize=16;fontFamily=宋体;fontStyle=1;strokeWidth=1.5;" parent="1" vertex="1">
          <mxGeometry x="242" y="337" width="60" height="20" as="geometry" />
        </mxCell>
        <mxCell id="nJHyJpiOqpMIGT2mlFp9-153" value="" style="shape=image;verticalLabelPosition=bottom;labelBackgroundColor=default;verticalAlign=top;aspect=fixed;imageAspect=0;image=data:image/png,iVBORw0KGgoAAAANSUhEUgAAAMgAAADICAYAAACtWK6eAAAAAXNSR0IArs4c6QAAFENJREFUeF7tnQtwXOV1x//nrsTDQKxdyTbYYGJ77xrzCimmQICJXQKExuQBA6QlTXA9sb13ZR5J3RAGqFNCH4QCtbQrCxJebSiD8UBKocVDBvAkDcQ2BZqApbvCRMQaP7R3RfyMpb2nXMmhjmNbe6XVdx/fuTMaecbn+875/8/30+7dvfe7BDnEAXHgkA6QeCMOiAOHdkAAkdUhDhzGAQFEloc4IIDIGhAHRuaAvIKMzDcZpYkDAogmjRaZI3NAABmZbzJKEwcEEE0aLTJH5oAAMjLfZJQmDgggmjRaZI7MAQFkZL7JKE0cEEAUNHpy+7pxe/ceeyrX1Z3kMk0iHjieiCYxYxKIJhFh6N/AsfvK2UGELczYAuYtQ//mLUx1mw3iLRXX3diXy7yhoHTtUwggY7AEmgrFs13ieWA+BaDTAXg/tT76GPSyAf45M9Y7OXN1rRPIfIAAUqNV0NTalXGJr2DieQTMqdG0VU/DjNcNclcReFWvdUpH1QMl8LAOCCCjXCDJQsdFBGM+AO8nDEcFjFXEeLzUbP4oDAVFuQYBZITdSxaKlxPYg+LqEU4x9sOIfszgh8tZ84djnyyeGQQQn32dsKLLHHD5NgJ/1efQIMNfI7htJWvmo0EWEcXcAoiPriXb7CwxbgMw2cew8IQSHky4e+/Yljttc3iKCnclAkgV/Um2d51BlcoygK6sIjzcIYS3Ab7DyWZWhbvQcFQngAzTh4YWe46RwGMATgpHy2pVBd/jWJmltZotrvMIIIfp7D44Xopr8wGsdizzshjrG7U0AeQQFja2bzyXKwOvjtrhsE/A2OLkzOPDXmZQ9QkgB3F+/IPvTUv0978bVFNU52XGtnLOnKg6bxTyCSAHdGnSY5uP6d+xfUcUmlfLGhl4uWyZc2s5ZxzmEkAO6GKqYHMcGjtCDSsN17itt3lG5wjHx26YALJfS1MF+8lQfzOuYPl5rySNA/hs8QbztwrShT6FALKvRalC5/cA+qvQd0xBgQz+67KV+Z6CVKFPIYAASBVs73oq79VDjiEHfunSwLy+7Kz3dDdEAGlfV5+qjP85gLN0Xwy/p5/xkJMzF+juifaApPKdN4Loft0XwsH0G8AXei3z33X2RmtAUsvtjyGBtSBkdF4Eh9H+U8cyL9TZG60BSbbZtxDj73VeAMNpZ+ZvlXOZu4eLi+v/awvIhPzG4ys04J17xOwixJov1V4DiQt7rela3sarLSCpfPGbIL6n5sspjhMyLXdy6RvjKG04TfoCUij+BOALhjNI/h8AY4OTM2fp6IWWgDTmO85hMry3V3JU6YDB9Ce9uXScL/0/qBNaApIq2P8E4BtVrg0JA0CMfyjlzG/rZoaegOTt90E4Ubdmj0YvE14vZ82zRzNHFMdqB4gGdwmO2Tokl88rNWdeG7MEIZxYO0CSBfsrBPxLCHsR/pLY/Y6Tm7ks/IXWrkIdAWklIFc7C3WaiZ5zrPQ8rRTrJNbTmirY6wBo9166Jn0m2uJk01rdv67XK8jQlbt7a7JYNJ1Et/MQrQBJFt69iFBZo+narolsIlpSyqZbazJZBCbRDJDiUgJre+FdLdYjA4+VLfNrtZgrCnNoBUiqUFwFcPS3Dw12Zb3tWOZpwZagLrtmgNibIrvxtLo1MWymBNedsC03TYsNsLUBpKH17ZMNo177e6yHXf1VBBDoSyUr/UwVoZEP0QaQVL7jWpDxROQ7FgIBBPxjyTJvCUEpY16CPoAU7PsA3DTmjuqQgHmNk8t8WgepOgHyMwDn6dBUBRr3OJZ5tII8gafQCRCdtxSt+UIzXJzd22y+XvOJQzahFoAk27vGU8XtC5n30S6H8Fkna74QbRHDV68FIPIJ1vALwW8EEV1Zyqaf9jsuavFaAJIsbDiTkHgzas0Jc71M+IoOj5fWBBC5BqvmsBEtdLLpB2s+b8gm1AOQtq55xO6zIfM+2uWwcZOTm/HP0RYxfPV6ACJ3EQ6/EnxGEHBryTJjvyulFoA0FuwcA9pcou1zrY8wnL7rWOnbRzg4MsN0AeRWBu6KTFeiUei9jmV+MxqljrxKLQBJFTrvBmjpyG2SkQc6QKAVJSudjbszugDSDtDCuDdTpT5dbpzSBJDiEwBfq3IBxT4X4Skna3qProv1oQkg9n8BuCzWnVQtjuh5J5v+nOq0qvPpAUi+8zkQ/alqc+Ocz3tcdNky58ZZo6dNC0CSeftRInw17s1UrG+lY5nXKM6pPJ0WgKTy9j0gxP4jSZWrhxmFcs6M/Q6VWgCSzNu3EMmzCGsKkCb79GoBSCpvL/jwcQffr+kC0XwyZuTKObMQdxu0AKSx1f4CG9BiFw6FC/aaD/fHWqkwXyCptACkqWXDbDeRWBuIwzFN6lYwt2+J+XJM5X0kSwtA8CQnUr3Fgbg3U6k+pqlOLv2+0pwBJNMDkMHHHhTfBPjMADyOX0rCXidrHhk/YX+oSBtAkgX7UYJ8F1KjRf2OY5mn1miuUE+jDSCpgu1tGudtHifHqB3g5xwro8WTprQBRB7eOWoq/n8C5uVOLnNjDWcM7VTaADK5vWfcnsrOnaHtRIQKY/B1ZSvzeIRKHnGp2gDiOZQqFP8X4NNH7JYMHHQgwXtP2JY7TR5/ELf1kCp0PgTQ/LjpUquHf+JYmYvU5gwum1avIMlC52ICtQVndwwyE93pZNN3xEBJVRL0AqTlnTMoUfdWVc5I0MEd0GRP3t+J1wqQfechGwH+uKz/ETmw+WNH1017b/60PSMaHcFB2gGSzNstRGiOYK9CUDI94VjpPwtBIcpK0A6QxnznlUy0SpnDMUrE4GzZyqyIkaRhpWgHyHHtPU31lZ3e026PGNYdCfg9B6jiziotmblBJ1u0A2TwPKSt+ByYZRMHfyv9Vccyz/c3JPrRegKS7/g6yHgg+u1Tp0CXzaoPdFRLQI5r72iqdxO/APMkdUss2pkoUTertGiaVm+vvI5pCcjQ2yz7XjBujvayVVM9AY+XLPM6NdnClUVbQJpWdM12XVduw61iPTJ4XtnKPFdFaOxCtAVk8FWkYD8F4KrYdbWmgvS69krOQfZzQHY7GZ4khpEtWzO0+u5jf1e0fgXZ95Hvi2C+ePilol8EEboMd+9Z23Kn7dBP/ZBi7QFJttnXEeNfdV0Ah9VNWOZkze/o7I32gOw7F3kVwLk6L4SDaN9RGcBZH9xgdunsiwAyeLLeOR+gh3ReCH94csorSlYm9o9YG67nAsg+h1IF+0kAsX9i0nALYt///wYGzncWm29XGR/bMAFkX2uTLV1nUML9DwBTY9vtaoVpsnN7NXYIIPu5NHgJSsXYVo1xsY3R5NFq1fZPADmIU8mC/RIBc6o1MT5x/IBjZRbFR8/olQggh/BQu3MSwgIna8oHFQesBwHkMH9k9Lg9lzYz88Jyznx29H9v4zeDADJMT+P9+DZ+04CxoNdKr4/f0q6NIgGkCh+TbR1fJjb+rYrQKIX8Zz3R9Vuy6a1RKlp1rQJIlY6nCra3M7y3Q3wcDnvvAC7YcYOp9yd2VXRSAKnCJC+k4b6NDcaRAy8BOKvKIaENY+bF5VymPbQFhqgwAcRHMxoLHV9kGE/7GBLG0NWOZV4WxsLCWJMA4qMrcfgikZjnl3KZR3zI1jpUAPHZ/lSh802AIvusw70DmCjnHtU3XQCp3qvByFTe/gEIf+lzWCjCGXi5bJlzQ1FMRIoQQHw2qrFgf5uBv/M5LBzhchGi7z4IID4ta2wrNjNzi89h4QgXQHz3QQDxaVljvvN6JnrY57BwhAsgvvsggPi0LNXWeRWYvO2ConcIIL57JoD4tCyVty8F4QWfw8IRLoD47oMA4tOyZKHrc4TBOw+jdwggvnsmgPi0LJW3F4DwfZ/DQhLOTzhWRqsnRI3WeAHEp4ONBftWBu7yOSwU4QT8T8ky/ygUxUSkCAHEZ6OSeTtPBMvnsJCE067+ROXk7Ytm9oakoNCXIYD4aFF6uX1kKYH3iTDBx7BwhbK70MnNfDBcRYW3GgHER29SBdu7H8S7LyS6h+xa4qt3AkiVdjXkO88yiLz7QRqqHBLmsJsdy7w/zAWGpTYBpMpOpPKdr4IoLvv39rnMc/tymTeqlK9tmABSReujfAXvoeQx6Jmylf5SFfK1DhFAhml/Kt+xDGT8TRxXCRPfVc5mboujtlppEkAO4WSyvWs8VSp3A7SwVmaHcR4C2kqWGdGPrcfeUQHkIB4nC8XLCXwngLPHvgXBZ2DgGRDdXs6mfxF8NeGqQAA5oB+pQvFOgHV827EVoNsdK/1AuJZosNUIIPv8b2yz/4IZzQD+ONiWBJ2dHmUY95at6W8FXUkY8msPSDJvX0E0CMalYWhISGrYA3Cr69a19jVP/1VIagqkDC0BaWh75+PEiatp8IlSdE4gzkchKWMLiB4jppWl3Iy1USi51jVqA0hT6zsZ16ifA7hzAboCwDG1NjPW8zE/T8DKvTzu2e3NJ5ZirXU/cfEFZBkbjZO65jBjLsDeVjcX6NLUMdbZB3h3VBovEA2sLmVnbhrjfIFOHytAJuQ3Hu8aA5cw88WAMQfgkwN1N/7JdzPoBYBecFFZ/YGVeTdukiMPSFNrV4YN9xKXcQkRLgEwLm5NiogeF8BqgruG2X3Fyc3674jUfdgyIwlIU8uG2ZxI/A4K2SkwnCvRBvAKue4ad6D/lfJNp3eHs8zDVxUZQFIr7FO5gs8TwTvB/lQUzda4Zpc9WNhdk0jU/XDb4hkePJE4Qg9IQ4s9hxK4mYDPR8JRKXKYP8nkfcfyOJHxeGnxjB+H3a7QAjK+3Z5hDOAb0b3/O+ytD74+Ap51yXignJ0R2m2UQglIMm97V5cui/S938Gvv8hUEGZQQgdIHG9OisxKDbhQZr6rnAvX/SmhAiTVVnwRg99hyKGrA0z4UTlrfjEs+kMDSKpgPwHg2rAYI3UE6ECIdl4JBSCpQvERgL8WYEskddgcIHrQyaYDv5szcEA0vkEpbEsyfPUwnnRyZqDvKgIFpKmwYaaLxGsfbsY2PnzdkYpC4QDRQiebDmwnyEABSebtln03K4WiF1JEKB1416gceVHvkqk9QVQXGCAT8sV0hTgylxwE0RzJOeQAg1rKVvqGIPwIDJDGQnEJg5cHIVpyRs0B7nGszJQgqg4MkFTBfh7A5UGIlpyRdOB8xzJfVV15IIB4jxFw6rBHtVjJF2EHmJY6ufQ9qhUEAkiy0HE5wfBeQeQQB6pyIKhv2AMBpLGt2MzMLVU5I0HiwJADbziW+UnVZgQCSKqteD+Yb1QtVvJF2oFNjmWeqFpBIIA0ttnPMmOearGSL8oOcL9jZY5QrSAQQFJ5+x0QTlEtVvJF24EKdqc+sM4sq1QRECCd/SCqUylUckXfAQOJU3qt6R0qlSgHpKH13ZMNo/KeSpGSKx4OuC5/uq85s0alGuWANLZ2XMyG8aJKkZIrJg4YuNpZbD6lUo1yQFKF4kKA21WKlFzxcICA5pJl5lWqCQCQTu+xZktVipRcsXHgbx3LVPq8yAAAKa4C+MrYtEyEqHOAud3JZRarSwgoByRZsF8iYI5KkZIrJg4QPe1k00r/uAogMVk7msj4qWOZF6rUKoCodFtyjdaBtx3LPG20k/gZL4D4cUtig3Zgs2OZJ6gsQgBR6bbkGpUDBPy2ZJlHjWoSn4MDAKT4NIFDs3OeT78kPGAH6nfuOnbL0k/sVFWGckBSbcWHwXy9KoGSJ2YOME11cun3ValSD0jBvg/ATaoESp54OcBIfKJsTX9LlSr1gOQ7loEMpd+GqjJT8oy9A24Fc/uWmC+PfaahDAEAYl8K8h4jLIc44N+BoxIfHNOzaPYu/yNHNkI5IMe1/rqx3tjdO7JyZZTWDjDWOTnzHJUeKAfEE5cqdL4J0JkqhUquGDjAvNzJZZTuZRAMIG32A2B8PQYtEwkKHSCi+aVs+hGFKdWfg3jivGcQfvj8QaXX9as0VXKNjQMu8yf7cpk3xmb2g88ayCtI04qu2a7rrlUpVHJF3AHCz5ys+SnVKgIBZOg8xPZunbxKtWDJF1kHrvnwQsWVqqsPDpAV9qlw8SQApVdnqjZY8tXAAcZDTs5cUIOZfE8RGCBepZPaihP7mf4c7H4ZhHN9Vy8D4u0A49cwcK+TNb2rLwI5AgVkf8VNrV2ZCrmfIdBnYOA8MCu9rDkQ9yXpAQ5QJ9hdDxjrXZfX1+2qrO/91inbg7QpNIAcaEJquX0i1dFslzCbmL0vh2Z7py5BmiW5a+rArwBex6C1hmusc+uxrrxoxgc1zVCDyUILyMG0jS90Tk94sBDNZtBsAqZi6Ed2aazBYhiTKZh3gqibgCID69h11/W7xtodN5jbxiRfjSeNFCCH0t7U0j3ZTfx2KghT4dJU9n4TTzUYU3kIoMYa+ybTfeQA9wDUDUY3iD0QuuFSdyWB7kploHt786xSlM2KBSDDNWDSY5uPGdj+m6kMOgnEU4iNyTB4sutiChFNBrtT4P2W4yMHvLv3GPCeLNsDwiYwehgeDNjEFerhBHd/sHVTN5bNHYizbVoAUm0Dm37QPZn37J6ChDHZrWCKBxHxIDgeQClmbiCgAUM/UXxb5z32rg+EPjD6CNjGzD0wjE1wuYfJ7QHqNw0k+nu2L5opF5QGcbl7tYs17HET8r88tlI5ooHrqQFupcGgRJPL7iQCJjJo4uBvwsRD6SDgKBCOBmMcMPTDwDgC6gHsYsZuItoF5t1sYBcxdjPQf7D5iLmfgK1MtIWBrQTeOvSbSlRx+wzjiL5jxqHvvfnT5LmQPheWvIL4NEzC9XJAANGr36LWpwMCiE/DJFwvBwQQvfotan06IID4NEzC9XJAANGr36LWpwMCiE/DJFwvBwQQvfotan06IID4NEzC9XJAANGr36LWpwMCiE/DJFwvBwQQvfotan068H/WKroUNvBM3gAAAABJRU5ErkJggg==;strokeWidth=1.5;" parent="1" vertex="1">
          <mxGeometry x="242" y="268" width="61.5" height="61.5" as="geometry" />
        </mxCell>
        <mxCell id="nJHyJpiOqpMIGT2mlFp9-14" value="统一身份&lt;span style=&quot;background-color: initial;&quot;&gt;认证接口机&lt;/span&gt;" style="text;html=1;align=center;verticalAlign=middle;whiteSpace=wrap;rounded=0;fontSize=16;fontFamily=宋体;fontStyle=1;strokeWidth=1.5;" parent="1" vertex="1">
          <mxGeometry x="728" y="332" width="180" height="30" as="geometry" />
        </mxCell>
        <mxCell id="nJHyJpiOqpMIGT2mlFp9-149" value="" style="shape=image;verticalLabelPosition=bottom;labelBackgroundColor=default;verticalAlign=top;aspect=fixed;imageAspect=0;image=data:image/png,iVBORw0KGgoAAAANSUhEUgAAAMgAAADICAYAAACtWK6eAAAAAXNSR0IArs4c6QAAEClJREFUeF7tnX+MHVUVx79n3vYHEWR3ti0Gq6Ld2QaMQpSo+CO0SgC1+AeCJhBFpXTZ2eWXJhKNBhIxJoZsdet720UUUyMRSDUgGCq/FJH6CzREU3bnNSS08Iftm6UFEWw7x872h922u/tm9s59c+477+977znnc+4n8+a9+UHQjxJQAtMSIGWjBJTA9ARUEN0dSmAGAiqIbg8loILoHlAC+QjoESQfN53VJgTEC+LXokvBOAeEpQwstt03AuoAfoN52BxfFWy3HV/jFUtApiDD0YKuebiBGP0A3losogyrEzYD+F7cH9ydYZYOLTEBcYL466MzmPFTYrynrFwZ2DARBleUNT/Nq3kCogQ5uTb+jgroPgDvbL7Elo1sxGGwqGXRNbARAqIE8WvRzwF81kjlFhYh8PpG2Jt+DdSPUAJiBPFrW78IJD+WxpkS77zG4LJHpOWt+R4gIEiQ+kMAnyewcX/2FnSet/PKxS8LzL3tUxYhiD8cLUUHtkntFoMvnwh775SafzvnLUKQRdX6yoT4UbmN4lvisPebcvNv38xFCNJVHe8jovWC27QxDoNLBOfftqnLEKRWHybwNXK7xFvisPcMufm3b+ZCBIkeI2CF5DbFYSCCtWTGReQuomldNRWkiObrmrMTUEFmZ2RkhB5BjGC0vogKYgm5CmIJtOEwTguS7MNKw7xAFdyU53xIBTHdCTvrOS1IEZsy7/lQEbnY2SLtHUUFydh/FSQjMOHDVZCMDVRBMgITPlwFydhAFSQjMOHDjytI57poheclK5i8c8tSX1lOjPMKwsBvy8JS85hKgJjuB/OT8WCQ3jI95TNFEP8H0TnwcAuAj7oAsYgT47yCuMCzDWp4isFDR155fVgQvxalDxq41CUIKohL3bRZCz0Qhz2r0oiTgvi1rdcDyVqbKdiIpYLYoOxoDMKFcX+wiU4ZqS/Zw/w3AKe6VqoK4lpHrdbzT+zFB8mvRlfuf+ja7VZDWwqmglgC7WgYJoTkj9TvAPMXXKxRBXGxq1Zr2kh+LdoJoNtqWEvBVBBLoJ0NQxOpIOn5x1ku1qiCuNhVezUx4en0K9b3wHydvbD2Iqkg9li7GYlvpe7a2BUM7ycuFqiCuNhVizUxfZxOGn1x0by9r/wZRG+3GNpKKBXECmYngxDRdxv9PTce/KOwvgbgUdcqVUFc66i9euLKrvnoO3vPEZeajI8CtMZeCsVHUkGKZ+xghKe44l080bfs+bS2KRcrLqrV35sgWUNEH9v/Do5l0otXQaR30Fr+6XOTHwTo4Tjsue3IqNPeD3LicLS4g8rxHo4y3Qee92reIu6Pt7Z9HA/00jXBtLci6A1TGZufV5AijmYZU9fhOQioIBmhqSAZgQkfroJkbKAKkhGY8OEqSMYGqiAZgQkf7rQgRd0HXpb744XvPRHpOy1ImTqgJ+ll6kbzuaggzbOa00gVZE74WjZZBbGEXgWxBNpwGBGC+NXoLhA+Y7h2a8sRsKMRBkusBdRAxgiIEKS7Nv4NBn3LWNW2FyI8HvcHpXkIn+3yJccTIYhfjS4B4R6xoJlH44Heq8Xm38aJixCkc3jsTK/D+7vUPhHRdY3+nmGp+bdz3iIEWTq07YRXF762BcDbRDbL4/Pjq3sfEpl7myctQpC0R34tWg3gh/L6xU/EYe9H5OWtGacExAgyKYnAX7OI6YrGQM8G3W4yCYgS5OCRJAbQJQE3A9WJMBiUkKvmeHwC4gRJy+iuRfcxcFHJm3pPHAZi/7spOVtr6YkU5MCRpJxPpGfgdTDWTgwEX7PWRQ1UGAGxghw4J6lfSB6fy4wV++8p/kBhlJpb+AVwcvs+9u7bNRg83dwUHVV2AqIFORJu59rnOtGx1/ojVJmwe1+Cba9cG+woe7M1v+wEnBEke+k6QwnMTkAFmZ2RjmhjAipIGzdfS5+dgAoyOyMd0cYEVJA2br6WPjsBFWR2RjqijQmoIG3cfC19dgIqyOyMdEQbE1BB2rj5WvrsBFSQ2RnpiDYmoII42Hx/fXQGErwThKVIkpNtl8hU+RPt5T/E1wa7bcc2HU8FMU20hev51ehKEH9h/4tgPtzCNI4MvQmc/DEeWH5zSfLJnIYKkhlZ+SYcPGIMAbigfNmlGdFfmPClif6ef5Qzv+mzUkGkdeyofA/KcTdQjreBzYiT+fp4oPf7kpCrIJK6dZxc/ZH6A2D+hJQyqNJxeqPv7c+KyVdKoprnsQT86tjNIO8mWWz4mTjsPVNKznoEkdKpo/LsGY4WxB30DMC90kog4OuNMPiOhLxVEAldOk6OnbXoUx5wr9D0saeSLH65b/nOsuevgpS9Q9Pk54/UvwLmW4WmD654H5noW/ZE2fNXQcreoekEqUa3gXCV0PQBTtbEA8tL/6RMFUToDvNr0eYSPMllLvSG4jD4ylwWsDFXBbFBuYAYfnX8FRC9oYCl7SxJ9Ou4v+eTdoLlj6KC5GfX0pl+LeKWJjDH4OkbiCfCYOUclyl8ugpSOOJiAqggxXA9elUVxA5n41FUEONIj7ugCmKHs/EoeQRJv9YQJ78znkyOf/P1K5bxLuiCRxLIK0gR3/vLlIvpXaJHENNELa1Xpk1ZplxM41dBTBO1tF6ZNmWZcjGNXwUxTdTSemXalGXKxTT+aQXpXBet8Lwkfe+GfspIoEQnxnkFKeQHgzy9Ym9TPBikVyYc85kiyNK7t53w6o7Xvg3C5QCW5Imlc8pLoKhfjvIIUkJKLwJ8P1cqX53oW7brUH6HBfFr0aUA0ls39eMoARWkucYyIZzoD0bS0ZOCdFW3fpgo+X1z03WUVAIqSPOd85K9y3cOnj4+KYhfi/4K4L3NT9eREgmoIJm6NvmWYtKvVpmgiR6sgmRrHzNfRn41GgLhhmxTdbREAipI5q7dnh5BxgCIu/E/c6k6ASpIxk3A/JwKkpGZ5OEqSMbuTQqiX7EyUpM7XAXJ3LvJr1j6/0dmbjInqCDZ+jZ5kq4/82aDJnm0CpKpewd+5k2n6B+FmcCJHayCNN+6KX8UHjyK6Fet5vmJHKmCNNe2Yy41OTRNL1ZsDqDUUSrIjJ2b+WLFo6fq5e4l10AvdzfXoGYvdzcXUVcqmkCeS8zLdAQpKhfT3PWOQtNELa2ngtgBrYLY4Ww8igpiHOlxF1RB7HA2HkUFMY5UBbGD1E6UvIIUch94iX4wME1fjyCmiVpaL48gllJrKoyepDeFSQflJaCC5CWXbZ4eQbLxKs1oFcROK1QQO5yNR9EX6BhHqifpdpDaiaKvYLPDWY8gdjgbj+LrSzyNMz3egiqIFczmg+hroM0zVUHsMLUSpbMWfcoD7rUSrIAgeyrJ4pf7lu8sYGmjS+oRxChOu4t116JfMbDKbtS5RyPgzkYYpM9/Lv1HBSl9i6ZP8KTRFxfN3/fv7QwskFQGg1dNhL0PSMhZBZHQpRly7K6OX8xEG6WUsV/m70yEwdel5KuCSOnUDHn6tfoagEcFlDL5IAQBeR5OUQWR1K0Zcu1at/VdVEnuKPFDyH8Uh8FqabhVEGkdm0mS0a0n077kZgDpm8HOKkNpxPgZe/hp3B9sKkM+WXNQQbISEzK+c2TLaZWksoLBp9lOmeH9iwnbk/kLn9i9+i2x7fgm46kgJmnqWs4RUEGca6kWZJKACmKSpq7lHAEVxLmWakEmCaggJmnqWs4RUEGca6kWZJKACmKSpq7lHAEVxLmWakEmCaggJmnqWs4RUEGca6kWZJKAE4L4w9EbMR9Lkz1YYhJOM2t5C1GPrwq2NzNWx8gjIFaQE4ejxfPm4UoCLgPjXa1FT8+A+REQNsdhcE9rc9HoJgmIFKSrGoUgfJmAZSZhGFprE/ZidXytHlUM8WzpMuIE8atjNyPHw5JtUyamKxoDPRtsx9V4ZgmIEsSvjl0F8m4zi6DA1Zg+FA/0PFlgBF26YAJiBOlcP3aml3gPA1hUMBOTy78Sh8FJJhfUtewSECOIPxINgXGDXTxzjybtIQVzr9itFUQIsnRo2wmvnvD6c2A+RSR+j8+Pr+59SGTubZ60CEE6h8fO9Dq8v0vtFRFd1+jvGZaafzvnLUIQvxpdAoLc/xeYR+OB3qvbeaNJrV2EIN218W8w6FtSIYPweNwfnCs2/zZOXIQgfjW6CwRRDxw7ck8RsKMRBtYvg2njfW2sdBGCdNWix+jAs57EfuIwEMFaLOCCEhfRNBWkoO7rsrMSUEFmRWRmgB5BzHC0vYrTgqTv4i4CaJ6veypIEZ0ofk2nBSliU+b9uldELsVvD42ggmTcAypIRmDCh6sgGRuogmQEJny4CpKxgSpIRmDCh88oSOe6qBT/PVAFN5XlxDivIMk+rBS+V5xN/6Vrgml/zDlGkO719c8j4U8z88dA9AbJVIo4Mc4riGSObZD7ywAeBOjhOOyZckPeYUFO+sGW7nlexwiAS10BooK40kmrdTzFFe/iib5lz6dRJwXpGY4WxB14zWoaFoKpIBYgOxoiruyaj76z90wK0l2L7mPgItdqVUFc66i9eojou43+nhvJH4kuAKffv9z7qCDu9dRqRUwfJymP0ckDRgXJQ03n/J8A30p+NXoShHNcxKKCuNhVezUx4Wnya9FuAE4+mkYFsbeZ3IxEE+Ty7/oqiJvb1mJVG6lrJFpHjEGLQa2FUkGsoXYyEBNC6hrZuoo4+ZWLFaogLnbVWk3/xF58UP8Hycjb5a+kGVG4PZxwYdwfbDp8qUlXLYoI6HGpaj2CuNRNm7XQA3HYsyqNOOViRb8WXQ9grc1UioylghRJ18m1n2Lw0ETYe+eh6o69mndk7M1I6P0A3p8Qva8sGKRf7l7U/fFl6Y/kPIjpfjA/GQ8Gm4+uQ2+YytjZvOcgRRzNMqauw3MQUEEyQlNBMgITPlwFydhAFSQjMOHDVZCMDVRBMgITPtxpQYq4D7xM98cL33si0ndakDJ1QE/Sy9SN5nNRQZpnNaeRKsic8LVssgpiCb0KYgm04TAqiGGg0y2nglgCbTiMEEHqwwS+xnDtFpfjLXHYe4bFgBrKEAEZglTH+4hovaGaW7HMxjgMLmlFYI05NwIiBFlUra9MiB+dW6mtnM23xGHvN1uZgcbOR0CEIP5wtBQd2JavxNbPYvDlR14h2vqMNINmCYgQJC2mqxZtIOBzzRZWonG7uOK9+9CjLEuUl6bSBAExgmD0r/P8fSenz0t9UxN1lWYIASONMAhLk5AmkomAHEHSR6SO1D/KzI9kqrCVg5mfJY/Pa/Qvf6GVaWjs/ARECZKWKelJkJQkFzcGl/8yf3t0ZqsJiBMkBbZo/dazkyS5F8CprQZ4vPjM2EGEgTgM7iljfppT8wRECpKWd8pIfcke5hqATwJY2HzJhY78DzPuSDowtKsv2FpoJF3cCgGxghyi07n2uc7Kgv+uYHjnMnCWFWpTg+wGYzsR/rZ3/sJf7F79lrgFOWjIggiIF6QgLrqsEpgkoILoRlACMxBQQXR7KAEVRPeAEshHQI8g+bjprDYhoIK0SaO1zHwE/gcf9ppE0R35GQAAAABJRU5ErkJggg==;strokeWidth=1.5;" parent="1" vertex="1">
          <mxGeometry x="788" y="272.5" width="60" height="60" as="geometry" />
        </mxCell>
        <mxCell id="nJHyJpiOqpMIGT2mlFp9-41" value="" style="rounded=0;whiteSpace=wrap;html=1;fillColor=#b1ddf0;strokeColor=#000000;strokeWidth=1.5;" parent="1" vertex="1">
          <mxGeometry x="619.32" y="406" width="20" height="195" as="geometry" />
        </mxCell>
        <mxCell id="nJHyJpiOqpMIGT2mlFp9-161" value="" style="group" parent="1" vertex="1" connectable="0">
          <mxGeometry x="961" y="267" width="76.5" height="78" as="geometry" />
        </mxCell>
        <mxCell id="nJHyJpiOqpMIGT2mlFp9-147" value="" style="shape=image;verticalLabelPosition=bottom;labelBackgroundColor=default;verticalAlign=top;aspect=fixed;imageAspect=0;image=data:image/png,iVBORw0KGgoAAAANSUhEUgAAAMgAAADICAYAAACtWK6eAAAAAXNSR0IArs4c6QAAHChJREFUeF7tXQuUHGWV/m71TAKEJNPVE6KAkJCpTjAKKA8FNoisAi6CoAIHEQXFE6Y6gKgQcVkeoi74AmG6JgEVFxUQRBAVUN64PgAVggYyUx0SHqJCujoB8ppM193UZIYdZqan66+uqq6evnVOzsk5fZ/fX9/U6/73EuQQBASBigiQYCMICAKVERCCyNkhCIyDgBBETg9BQAgi54AgEAwBuYIEw020mgQBIUiTLLSkGQwBIUgw3ESrSRAQgjTJQkuawRAQggTDTbSaBAEhSJMstKQZDAEhSDDcRKtJEBCCNMlCS5rBEBCCBMNNtJoEASFIkyy0pBkMASFIMNxEq0kQEII0yUJLmsEQEIIEw020mgQBIUiTLLSkGQwBIUgw3ESrSRAQgjTJQkuawRAQggTDTbSaBAEhSJMstKQZDAEhSDDcRKtJEBCCNMlCS5rBEBCCBMNNtJoEASFIkyy0pBkMASFIMNxEq0kQEII0yUJLmsEQEIIEw020mgSBZBDk4gdaMjvtcigztYHQBuY2gHdskjVoijQZ2iYQr/X+kZta2z958qOvnP4WJ+nJ140gU7teyLRqG44B42gQHQ2gJelgSXxhI8C3MtFt5dbt7koqWWInyIz88h37MWkRERYB2CVsyMVeQyLwd2Z0taCv6+Xc/NeSlEGsBElbK88guB4x5icJBIklMQgsZ2hdJXPOkqREFBtB9HzPxSDtoqQkLnEkFwEGflgyjU8kIcJYCJLO21cP3lIlIWeJoSEQ4CcdM7t3vUONnCBpy36AgEPrnaj4b0wEHNOI/BwdD5lInact++cEHNOYSyNRJwIBotuczo4P1yuWyAiidxeuBPPZ9UpM/E4cBIhwWbHTOL8eGUVCkEx34Thm/lk9EhKfExMBBp9cMrM3xJ1dJATRrcJ9AB8WdzLibwIjQPgra9qC0sI56+LMMnSC6FbvaQB9P84kxFdzIECMy4q5eG+1widIt/17MA5sjiWTLONGwKX+2Ws791wdl99QCaJfa++KLXg+cPDsXsJaakWqTH9Zs2hOb2A7opg4BHa69pmZ/X3lvQHaC+QuBqg9SJDEfFoxl/1BEN0gOuESxLKPB3CzciCEFRqXj11jzutR1hWFhkNg2nef11v6Nt4O0ALl4Il+4HR2nKasF1AhbIJcC+B0xVjWOabRpqgj4hMAAb27cB2YT1VLhVY7ZsdsNZ3g0mET5HEA+6iFw59yzOx1ajoiPREQmHn9P6dsee21vwE8SyUfd3NLeu05s9eq6ASVDZsgJQD+rwbMtzm5bN2+kgYFTfTCQyCd7z2PiC5Xsegyv2NtLvuEik5Q2dAI0nbFqjZtcr9HEP8Hu5c4ubkX+1cQyYmGQLp75QeJ3V+o5EVwjyuac29X0QkqGx5B8r37aETeLZbKcYJjGreoKIjsxEKgfenqN7vlLS8qZnXO1ufWKxV1AomHR5Cr7UO1FB5QicIt471rzzQeVNER2YmHgG7ZrJRVjHceQhCllRHhKBAQglRAVa4gUZxujWdTCCIEabyzNsaIhSBCkBhPt8ZzJQQRgjTeWRtjxEIQIUiMp1vjuRKCCEEa76yNMWIhiBAkxtOt8VwJQYQgjXfWxhixEEQIEuPp1niuhCBCkMY7a2OMWAgiBInxdGs8V0IQIUjjnbUxRiwEEYLEeLqF56qt65ndNeo/Fpo2m5gzDGQApAHshG3/n07Ay8woguhlBpeIsYaAl1zCcurHHc5ZxivVItItW3GjHX3ByXV8q5rdMH6Xat4wUJxgNtJLV+6mld0uBrzJXzUdTPzVUmf2gvGMpK3CbQQ+1q+jOItchSB+V6VJ5KZbz6ZT6PM2vu0eVsoE3FA0jZMr2VObHUM92qv9+69ZPO/VsOIbz44QJA6UG8hHsE4jPhIk/qjTmb21Ikks++8Adq5mieEeUjLn/raaXFi/C0HCQnIC2Jl+9YrZqVTqmUhSYaxwcsaelWxnunrfxRr9cVzfMe4kHIpDCBLJ2dCYRtOW/TUCIhszUO2v/8zuwk79zNfy6JkyzxHhgmKn8cO4kRWCxI14Uv1dzJq+U8FrG1v1NqeGFK5zTONT1fTT1jN7aVTemxkZMD2awuYn6zX9VghSbbWa5Pe0VfgAge+MON31res3zPzXuXuvj9hPaOaFIKFB2diGdMv2eip7vZUjPhqrk6YQJOLToR7mdcs+nsELCNQB8PNM9ES/5t7y6sK5a8aKZ9p3l+stfZOKccRKwENF06g41FXvsueTxse5oCwBXgf4x6DhbucM4w9xxDfShxCkHqhH5LPdKuzrgv8HwPwKLu5m5usnbdh4x9BtTjrfexIRXQLAiCisscze5TJ/aah9qH6VvSu34GQCTgJQafTzLX39yL12lvFyjHFCCBIn2hH6UnyG2ESMW5nwtnFOyAijfd30LSDMBOMQn86e1crlg9acOU+1E6NP86PFhCCBoUuOYltX7yGaRg/FGREBlzNjE7aR7CPx+eaeLW754FcX7RnXLWE4qbVJ69FwgFS0Mnhb9TCAHRRVg4sz/uDkjIM8A1OX9rS3ljXvL3prcIPKmsu0yeUFaz4dfbmJXEGU1yY5Cpl8755M5D28To81KsbpTs743pBPPd/7MxAdF2sMwO+3S015/4sLd94QpV8hSJToRmjbKwtpSaUeYWBGhG7GMj3qW0a6u/eDxKQ0wiCMmBl4sNTedwROmN8Xhr2xbAhBokI2Srs3L5+kvzxpGQjzonRTwfbor+HbvsL/C9tey8Z7MF3l5DrOjsqpECQqZCO0q1u2t1nocxG6qGS6z3VT2bWL9nh2pICeL3wGxNfUISYQ0b8XOzvuj8K3ECQKVCO0qecLB4H4f4HwXtH7DZfB55XM7Dcqyevd9kMKr2z9uvUj92Lr+g3ZKEpYhCB+4E+IzMxvLJuyZcoOTwHYLeaQ1hOwuNjZYYGo4rCb9u+tmOpuSl0JQtWCxAji91UIqepXCKKKWB3l9W77GjA+E3MIvymXy2esO3PeqiG/bd32O1pGvDnb0l9+dkhGz9uHMyFPQEecsTLx0aXO7C/D9CkECRPNCG3pS+y3wsXyCF0MN/0sAde4Ke1HpYVznmvvst/pajiUgEO3vjny6qimjh0H/YPA9zHhAda0e6mfd4XGp8ZI6mcd01AaKV0NTyFINYQS8nva6j2XQF8PFg6t9juLnMFXT9m0/eJ1UzZMaSlrFxPwscFOJgFccw8Trkix+6DLqetAONCnkecC30a6eJuzyAjtD4kQxOeK1Vssbdn3b62Efa9yHIOvQb3bIs2l40DslYW8dbQdfsx18YW1i7IP65btvSG7CMA0ZX9jK/SCcBaB5zJrXwT4zaPEiO8jptsoteVnk9C2blN5/WNjx1k1os87pvHtqlI+BYQgPoGqt5hu2b8DMFDeoXDYjmlkR8q3WyvmMloOZ2IdLr1IoCeKuTmPpbsLbyN2fwrQXAUf/kWJbnQ3pUxtUvnd0DAfLk9l4t7ypC13v3L6fGe4ofaulVlXc3v8G98mycyLS7lswCvtaG9CENUVqJN8Jm//NxO+qOreBQ5daxpVCxn1vP1RELw939up+lCUX14GH7POzI7bHCLTXbicmc9TtA1oOCjMvSNCEOUVqI9C2uo9ikAB3tDwk46ZrbTHYiAZ3bIv3PpdxdsTEtdRJJePKi7KPjKWw+lW7x4p0MoAwWxyTGP7AHoVVYQgYaIZoa300pXTqey+AGBHVTdMfEapM7t0LL3aHv5VI3mD/KtwceBYD9QZy/4FAx9Uts58p5PLHqWsN46CECRMNCO2NfjwHKQnbRH92GNkn9zB26pbIg67snnCC1s09x3DtwJnrN73MeieIDEx0dtLnR1/C6JbSUcIEiaaMdjSrd4VwR6i39gsYbBU/k+x7iMZAx8GHiiZxmFDP+lW4VaAP6wMJeEKp9MIvT5NCKK8EvVVSHcXDiYeqMVSPe52TOMDr5+IefsxEPZTNRKF/NAt4ECpyuaUt1NQdfPVGm1yeY8oNlAJQaJY8Yht6pZ9E4ATFd0sd0zD2x6LjFX4JIN/oKgfpXgxxX2zgMlvKhPbqo4YOKVkGj9S1fMjLwTxg1LCZAKVnRDf53Rm3+eloluFVX6/rMeVOjFdoGHzd8o0SbVre+jlJcNzFoLEdQaE6CfTZX+INdyuYpIYPy7mjI/r3fYJYPxERXeE7HPeTj4Qnk4xniozTyFoe0LjPcE4onKdVlWPjmMaGd2yXwMwpar0MIEdNm23wwufe8tGFR2/skIQv0glSC5j2ZcxsFgpJKZznVzHNzOWfUfAwTjM4C6vTqvSyajnC29h4uu9okal2IaECUcyY7FySQ3TwU6u4/eBfFZREoJEgWrENtOW/YDqSZjStGwrbf/3TeX1QfribmS4R/idyxH0dTSBloDcp5npO0oQMj7n5IwrlHR8CgtBfAKVBLG27qdnEbdcp0oOgFY7ZsdsPV84EsR3qeZCwKKiaeRV9NKWfRsBvseqDdruLZfLRwaYUeJufbS6atr2LeevPm32JpU4q8kKQaohlJDf9Xzv2SC6LGCt1MBuOz1f+DKI/0spJcY9Ts44XEkHQNsVq9q0yeWnxqzcHcdY/6S+TEvfpKcHB4UquWWgANZOK+XmBHkNPqYvIYjSEsQv7F01NG7xXmEeHNQ7A18smcblgfpXEY50Oo1fB/GdtuyvEvAlFV0m+jdivryGfF0QXb3Dxsnnh/HgLgRRWb2YZfV84UQQfzdI/dXwUMnFscVFxs91y/a+nO+rkkYZk/R15u7emGblI2MVjmXwbSqKBDrV60wP4NMqeqNluYdSfGxx4dwVtdgRgtSCXoS6NXwxHxlVGf3QvTqsjGX/hYF3KIQ95n4Sv/reSLUtzF6/LN+Hd8VxiVYR842+lSoIejPcaXJ5Ti1f2IUgta5CRPq6ZXtFd5XGGPj2OrzWSbdsb0jmu3wrg37rmB1+O6+PaVa37IpdUMZSIKKv06T+r7ibU6/4j3M8SfqKY3aoPXcNMycECWcVQrXizegjlJfVanTrQM7NLlIHlMw9nvRs6ZZ9H4DXCwN92N/gmIbSR7vhNtNXr3w7pdwB374P4gudzuylGcs+n4Gv+darLPicYxqBZ74LQUJYgbBNZPKFTzANDMKp7Rgxm1zP2z8B4QQVo66bmjVWJ0U/NoLUfDG4s2RmlwwQurtwA5i9oTo1Hd6bsZFbev0aFIL4RSpGuZDaeJ7jmMaVw8MOsm3XmwNSNA3lrb6DVyxvx+ABKtAR+P1FM3vvkI6e7/0ViP5DxcZIWSJ312Ln3L8HsSEECYJaxDp6t30EGHcHcUPASrB2kteEYaR+Jt97KhNdp2qXy9pepTPn/FVFL231nkGgbhUdTzbFLW9+OTf7n8P1dMs+fWvrIe/reqAZKI5pBD7PAyuOTFwG6KieCpXlZ+QLHQHKvr2vyVdO277lPyt9TQ5oF2D8yTE7Dhiv7ejwbGbkV72pTP1e2brq9uBnHNOYMxYyXp0XaODNlur3oF7HNAJ3aRGChHdeh2pJ9e0PM7pKOePMakHolr0aQICHVroXjE85uY7nx/ORtnoWEDRvr8ke1WIZdSsEWlI0OzrH08tYdoGBMUk0lh4BvyyaxtGqsQzJC0GCIhexnm7ZvYqTZ3/jmIZXbj7uUWMHkw3MOBct2o9LC+esG+7IG+iTamk5G8yBZ3Vomrb/mjPmeB8zxzx2XvriDsrFljVuxRWCVDuj6vR7gIfTjQRazJq7AmVtRaW/9O1Xr9jZTaUCPbC+EQp+koGHCLQTQIeo1lyNgnXY3MORv2WW9sxDOTXPhXsYgapeJYfrM8EsdRrKz0JyBanTie/XrZ4vfAfEZ/mVH0POq2r1vqXcSeR+b/hbnEy3nWeGWYPt8FU1Ptw5IzvQzUS37HcPjFBgvAfAqM6QKs5HvhVT0fVk5QqiilhM8oN1WN7e81AOBq4vmcYnPWODD9FeZ8NQm6wFDnRwO/BgYaZXu7VPYFsjFDmltY28HVSxLQRRQStG2Rn55TsG2J89foSMe1o3bDjOm8Skdxc+D+ZvxphSRVeaq81lKqeYtPtqvlV7gxe61zE73l9LjqERZOCyCHgjiX0frGlHlc6Yc6dvhSYT3Iqp9y2k6oO3CiwM3F4yjeMwMHjTq82i/VX0w5b1SvGpH91ooRXhkgPe7MIzi50dXbXEHBpBBi/b/1AJptrMOxVbE1E26Me2qlgQTnQ6jZsHO6g/Gvuc9f8PcODNW9qyvX3sp1SNW1Ggli/oQ65CI4hnULdsr7OE7+7gW99n/7BkGp9QzLtpxNuXPvVmt9z6YgQJlzil7eNNjxpsIeQVMb4pAj8VTQ5dyULosjKmDwIeL5rGO2vNKVyCdNtPg5Vmd28glw+r1OW71uQmgr56ibq/rL2SlPLmlv3WnjN77YwlKw3XdX/HwAx/2rVJMXBH6aUXPpKesdu7iVyPnJNqszim9kWOaXy5VrvhEiRYX9U/O6aRiBaYtYIZhf7gXvQ3FB2G6OeP07Zvea9XmjJ9qT0nVYZXQaxayqEUDjEuK+aM8wd7A3vPrNOVDPgUppS7Z627CT1XIRNkoKjsWp85DBe70jGNcwLoTXiVWdet2u6Vjf3erIydI0l2xJdmPW+fA0JoI8yGxdzLSB0/bG+KV/w40Ao17GP4K+1abYdLkNomsT7hAhe1pFofW7NwltLDfq0gJF2/zbLfo3ndDCM6mLUFwzuBDMwzZG9gKA+0Kq3xWAfQNdO2T104VEQZqPGd/yB6y5j07qD76Ee6CZUgnvGQtoo+v7UhcZAJQ/5hTLgkEa1mpkdS4MfWmB1/bu+2D3VddIOUnvF8ZTnUlnSk8La3XHw64P1D2pexISHGHwh8zdQdWm8aWV0cpL2oP998ExF/Iejej7F8hE6QjNV7AYMu9ZeQSPlBwBvNXDKzA2Un+lX2rlqKDBe8B4hmEfNsJswCaI/A3xHGqYMaik9fYh/IZV5ARFmAdgd4NwC7AtgIxioQPUeEgsvuslTZfXDNmfPGfPs2dWlPe2tZe9lP3hVO2JUM8ppvryZglcu8iohWpbjvby/n5nt9fUM9QifItlFh/AjAgWvwQ81wghhjQlepc/xy9iBtdgbheckxjZlxQJXJr9yfyfW+vagea1Lc8vaRm6lUjajKh04QL4BMd2ERM1+tGozIj48AMX2ymOu4fjwp3Sp4zw7nKmL5omMau1TSmW49m9aw+SACzSVXW0YptzxStgzekVwyAHpkvEbSbUt69tZc7QnF+KAxHbYm1/GAql6t8pEQZOBWIIS9xLUmNwH1Xx+CMy5J8vbTis8qyxzTGFUguOu3n99+w+RNl4LweUUs1wL8OcfMjtrem+nu2YVZ84aRqhx1e8sZGUEGSGLZTwHYUwUJkR0fAS3VunO1t3y6ZT+uVBE7Rv/dbaOYB4oHZwVdEyb8vNRpjGpgrbpbcujbSdA4atGLlCCDJFEqP6klmWbQrbbrbhBzb0OU7+8mBNxQNI2Th/AbnFP+8NZvWhVvu3xj7ZGvZd1RWLjfliGdreMRvKZwUxVsfN/JGTW2IvXt7Q2CkRNkcMF6at34Eiy9CafV57zUNxUXz+8b9xZLtZsh8KOiaQwUC277ok6/DfxGbOzA7nJM4/XWPbpVeFHF/kBpiml8qB6rGQtBBklyM4Dj65HkhPHp43XstrED/crNpr3iPmbkQfhKRIWL94PpLoC/AILqG7NHHNPwtlPEfsRGkEGSeGUo3kcnOYIhcIJjGreMp+oVHpZd12v4MJGOiu2Aok4yVoJ4ybR19R6iabRIribKSzswBKeaVqa75wBmzetoOJGOkmMaej0Sip0gQ0mmrcIHNLjHMMjrWVT7w2A90IvJJwHdRdPw1WShfcnK/VzXHdVVMaZQo3IT24fMkQnUjSDDA8lYve9jaO9hQpvG3OZdaFz1rnxRLU4odtXnCvKtTNoKgvu405m91W8QO137zMz+LeU3tO70q5tUOSb8pdRpKA3+CSuXRBAkrGSSaifutqy61ftovfeah7wWoWx+ChKTECQIaoo6cROk3Srs64K9eidNMdQkij/Tun7DXl4nlnoEJwSJAfW4CeKltO22lX4a1Y69GGDzdvM9DnKPDrN8XTVuIYgqYgHk60EQL8yBTjPo/+pAl8IwD8a3NA2/HDLpMl8K0L+F6GIDiC50Oju+FaLNQKaEIIFgU1OqF0GGohy85VqqOuF27Cz5m46ZfUO18EBR43abvKE3B6khM0qaAb6+lbTz/tXZ8VKNtkJRF4KEAuP4RupNkIHomCljrTyFaWAGecAWP6PJMZR5CCT5swZa6O2ejGFJfLsQgviGKrhgIggyFP5V9uRMik5k4oWKf/GrvknySLJ+u013KrzS7gPjdtJoabGz4/7gCEenKQSJDtvXLSeKIMPybbdWzC1zahERTh13GhTzZ51c1huB5uvQLdtrun3iOMLPMaG73Np3TdDhmr4CCUFICBICiNVMJJUgw2+PNk7efDyT+5kRD9t3aSifs8ac51VjKx3tln2Mi4GH970GFb0S93sIvGT4kE4lo3UQFoLEAHrSCTIcgpnfWDalPGXKvLCeBfSr7GluK+as7TS8TVwNdwhBYliyRiJIDHA0lAshSAzLJQSJAeSIXAhBIgJ2uFkhSAwgR+RCCBIRsEKQGICNwYUQJAaQ5QoSA8gRuRCCRASsXEFiADYGF0KQGECWK0gMIEfkQggSEbByBYkB2BhcCEFiAFmuIDGAHJELIUhEwMoVJAZgY3AhBIkBZLmCxAByRC4mDEHaL18xtX+H1L6aRvsCZf99XyMCdpRZ0i5ScsXuJUryMQqTllrWv4WfXHeWMeGngE0IgqStngWE1LUytCdGlngTYBk/LuaMj8frNV5vDU8QPd9zMVT/OseL8QT3xo5jZjMTNcmGJkim2z6FGeNOXJqoC5esvPgmx8yelKyYwommYQkyI798xzJNWg7AGyYpR70RYPcSJzf34nqHEbb/hiWIni8cBOLfhQ2I2AuMwK8d0zgysHZCFRuXIJb92a1N0a5IKK7NGNYrjmlMn2iJNzJBvGE83lAeOZKBQK9jGhNu9HfjEmSJ/Va48J5B5EgCAsw3Ornsx5IQSpgxNCxBPBB0q/AwwAvCBERsBUOAmT9WymVvDKadXK2GJsjgNNYJ/zU3uafPtsiYeXEpl/160uMMEl9DE2TgKrLtVst7FpkfBADRqQ2Bif41veEJMrS8g1/UvUmoBwKYVtuyi3YVBJ4g8B9dSv2q1Dnn9S7vExG1CUOQibg4klP9ERCC1H8NJIIEIyAESfDiSGj1R0AIUv81kAgSjIAQJMGLI6HVHwEhSP3XQCJIMAJCkAQvjoRWfwSEIPVfA4kgwQgIQRK8OBJa/REQgtR/DSSCBCMgBEnw4kho9UdACFL/NZAIEoyAECTBiyOh1R8BIUj910AiSDACQpAEL46EVn8EhCD1XwOJIMEICEESvDgSWv0REILUfw0kggQjIARJ8OJIaPVHQAhS/zWQCBKMgBAkwYsjodUfASFI/ddAIkgwAkKQBC+OhFZ/BIQg9V8DiSDBCAhBErw4Elr9ERCC1H8NJIIEIyAESfDiSGj1R0AIUv81kAgSjIAQJMGLI6HVH4H/AybnXG6h39v9AAAAAElFTkSuQmCC;strokeWidth=1.5;" parent="nJHyJpiOqpMIGT2mlFp9-161" vertex="1">
          <mxGeometry width="76.5" height="76.5" as="geometry" />
        </mxCell>
        <mxCell id="nJHyJpiOqpMIGT2mlFp9-16" value="" style="shape=image;verticalLabelPosition=bottom;labelBackgroundColor=default;verticalAlign=top;aspect=fixed;imageAspect=0;image=data:image/png,iVBORw0KGgoAAAANSUhEUgAAAMgAAADICAYAAACtWK6eAAAAAXNSR0IArs4c6QAAIABJREFUeF7tXQuYHUWVPqd7MkEWzbi4qxhYfCC6iC4qAoovROMiICJGWVbdIBoxydyumomJ4Osq60omk9un74SgERFFxTUIqKwuLxF21weuvBRRlnUVNEGFTRCIYTK3z94TO+wwzKOruvve7r5d33e/G5hzqk79Vf/trqpT5yBUpUKgQmBGBLDCpkKgQmBmBCqCVLOjQmAWBCqCVNOjQqAiSDUHKgTsEKieIHa4VVo9gkBFkB4Z6KqbdghUBLHDrdLqEQQqgvTIQFfdtEOgIogdbom0li9fvve8efMOBIBnA8CBiHggMz8VAPYCgMdP+kg7D0afB6Lv/wWAnwPAHWEY3tHX13dHo9G4O5FBlXJ1UNjNOaCUehoAvAoAXhl9y3+nWba16/0OAFwn30R0c5qV93Jd1RMko9EfHh4+KAzDN4ZheDwiHpFRM9NWy8w/A4BvAcBlQRBc38m2y9ZWRZAUR3R4ePhJYRiewMwnAMDxKVadpKrvMfPXWq3W19avXy/EqYoBAhVBDMCaSVQptQ8AvAcA3g0AspbIazmn1WptGBsb+2leDcybXRVBEoxIgYgxuZcPIuIuojSbzbsSdL8nVCuCWA6z1nqYmYdy/sSYsXeIeE8YhrR58+bRTZs2tSxhKL1aRRDDIa7Vake7rnsGMx9tqJpX8R+0t5dHiejivBrYTbsqgsREf/Xq1Qt27NjxIUQcjqlSKLH2WcyXEHGk0WjcUijDMza2IkgMgIeGhl4fhuFZAPDCGOJFFpFDyA8T0TlF7kSatlcEmQXNxYsXu/vuu+/HmPnMNEEvQF0XIeKHfd+/swC2ZmpiRZAZ4JWDvlardS4AvCLTEchv5Xcx88ogCDbl18TsLasIMg3GETkuiXylsh+FP7UgvlZbAGCzfCPi5jAM5f/vg4hPke/oM9Apg6QdZn5LL5OkIsiU2RaR47aMJ+EdiPgNZr7ccZzNfX19W0ZGRoQgc5Z6vb7Hvffeu4/jOPI5CgDk1P7FcyomEOhlklQEmTRxlFJHAsC/J5hLs6mKM+G3HMe5Iu2dIq31Acx8DAAcBwCLMrJ/NRGNZFR3bqutCBINjVLqkPav8U0pj9RPmPnTAHBFEATiop55mUSWdwHA81NucJiIGinXmevqKoK0X/6Hh4f3b7VatwPA41IarXuZOdi5cydt2LBB7nN0vCxZsmSPgYGBFQAgn/3TMiAMw3c2m83PplVf3uvpeYKsWrXq8ePj4/JalcqvLSKuB4AgL1uknuc92XGcFcw8CAALUpqQrycicacvfel5giilvgoAb0phpC8OwzBoNptZrWESmeh5ntxeXIGI8kRJWu5ExGPy8iOQtDOz6fc0QZRSawBgVQoAv4+IRlOoJ/MqtNbHR+uiJyds7FtE9PqEdeRevWcJopSSRawsoK0LIu5g5qVEdKF1JV1QVEqJy4ysI5K+Vo4RUa0LXehYkz1JEKWU3A//ZsJF+a/CMDyu2Wz+pGOjlXJDSqkrUtgWrhHRWMqm5aa6niOI1vpxYRj+ByK+IMEo3NBepB6eQD83qlrrc5h5WRKDwjA8stlsfjdJHXnV7TmCKKU+BAAfSzAgREQ6gX7uVD3PeysiftnWMGa+NAiCNDY6bE3ITK+nCKK1fi4zyy/dEywRPY+I5N556UpSkgDAO4q2FosziD1FEKWULEyXxAFmGpnriUjiWpW2aK0/yMxy78Wm3Do+Pn5ktw5GbQyOo9MzBPE87zhxEIwDyjQyW/r7+58d16HQso1cqCmlPg8Ab7c05qNEVLfUzaVazxAkyYEgIh7u+/4NuRzBlI0Sb+GtW7deaxns7i7Z/PB9X24mlqL0BEGibd1rLUfsVCK6wFK3kGrROcmVALC3aQcQcaXv++tM9fIq3ysE+ZwsIk0HgZk/GQTBe031yiCf4CD1toGBgRfW6/XxMuBQeoJorQ9l5h9aDNaDrusevm7dup6NQqiUkmDYxleOmfn0IAg+ZYF57lRKTxDP8z6OiMZBF5j57CAIzsjdiHXQIM/zFiPiVyyavJqIXmuhlzuV0hNEKSWuIM81RP430cL8N4Z6pRNvr0e+bhOIOwzDQ5vN5o+KDkipCTI0NHRcGIbGW7uIeIbv+2cXfXDTsF9rvYiZxWfLtJxFRB82VcqbfKkJ4nneeYh4miHot42Pjx9RtgMvQwweJW55NvJjIkrqLZzE7FR0S0uQwcHBJ7iu+98A8CQTpBDxvb7vf9JEp+yyWuvD2kEhJIavUWHmvw2CwObpY9ROlsKlJYjnea9rH3b9qyF4D7RarWeOjY393lCv9OJKKTkXMV14F/5kvbQEUUqJy8NHDGfuJUR0kqFOT4grpeTmpdzAjF2Y+ZogCF4TWyGHgmUmyL8BwMsMMV9GRBJutCpTELANqNdqtRaMjY39oaiAlpIg0frjftNBaWdd+svq9Wpm1JRS4o9mFMXRcZxjG42G3N4sZCklQZRSEmXQaFAQ8Rrf9wv9OpD1DFRKySurqbfuCBGtztq2rOovK0FUOwaUbwIaIi73fX+DiU6vyVq+Zl1GRCcWFauyEkQmupGTYfV6FW8KW3gm3E5EB8WrPX9SpSSI1vpqwxyC9xGR0XlJ/oayMxZZ3KtpEVFfZ6xLv5VSEkQpJemN9zOA67Z2EsuDDeR7VlQpJaFVl5sA0Gq1DhgbG5ND28KV0hFE0qYtXLhwwnAkSuN9athvY3Gl1AcA4B9NFMMwfE2z2bzGRCcvsqUjiGSjffjhh7cZAnwhERlfqDJsoxTinuedhojnmXQGEd/o+/7XTHTyIls6gmitFzLzr00ARsS1vu+nEaPXpNlCykYZf//F0Pi3EdEXDXVyIV46gkgUc0T8mQm6iDjk+77RtrBJ/WWSHRoaekEYhjea9KnINwxLRxCbK7aI+He+71tHFjSZLEWXVUpJMlFJNBq7FDmQQ+kIYhnB5CgikhyCVYmBQPtEnWOITRYprFdv6QhieXfhFCK6yHDQe1Lc5gnCzKuCIFhbRMDKSBCJv2uUkoCZVwZBUJpYTllOxFqt9iLHcf7TpI0iu/GUjiArV658+sTExC8MB3Cd7/srTXR6Vdbynn9hg++VjiCStBIR7zGcwBcR0SmGOj0prrVeysxGMa+Y+S1BEGwqImClI0iUtdb0gs53iOioIg5gp222ualZ5DshpSOIpavJHe1FumSBrcocCLQX6fL0WGoIVGF3CUtHEBm4djKY29sZk55jMIgPEJFtUh2DZoovahNIrq+vb6/R0dGHitj7UhLEMo7TQUR0exEHsZM2K6VkfWeSQrrQntJlJcggADQNJ84Hiejjhjo9Ja6UOhIA/t2w0xcQ0amGOrkRLyVBBgcHj3Bd93uGKP+AiI4w1OkpcaWUnBUNmXS6yGcg0s9SEsRyoS54PJ2IfmkyAXpJVin1YwAwuljGzIcFQWCTfiIX0JaSIIKsUkoii7/QBGVEVL7vByY6vSIbZZ0yjtZORIWeY4U2frbJqZSSXOiSE92kfJ2ITjBR6BVZrfWZzGy0RitD/vTSEsTzvBcjomnizYf6+vqeMTo6+rtemfhx+2kRCEOqLnzu9NISJHrN+h8AeFrcSbBrUVZFd38MXJYe0tBqtfYbGxszut1pMladkC07QWSrV7Z8TUqVH2QKWpbnSlcS0etMgM+jbKkJorU+kZkvMQW+yjD1/4glyDB1JhF9whT7vMmXmiBKqQEAkCy1ck3UpFQ5CiO0bFxLolfVF/u+b3RvxGSAOiVbaoJE6xCJ4SSxnIxKleV2l0+bVZZbRPyq7/tvNgI8p8KlJ4jW+hkAcCMzLzAcgypPumWedAA4qZ2f0PjV1nB8OiJeeoIIip7nNRBRmyLKzJ8MgsAoCLZpG3mVV0q9CwA+bWHfD4noMAu9XKr0BEFqtdrBjuNILKd5FqNQ2OuiFn3dpRKdmktOwr0t6tBERBZ6uVTpCYJEgy6Za99jMwqIeLjv+6aHjjZNdV2nXq/vsXXr1mvbCVBtHDfv7uvrO7RMB609Q5Ao4qK4atukOdjS39//7JGRkQe6PoMzNsDyzGOXVcw8GASBRH8vTekZgkRPEeNMrZNG+noiemVpRn6ajmitP8jMZ1n28SoiWmSpm1u1niJIRBJ5isjFH5tyHhG920Yx7zrta8pvbV9Ttg6/ysyLgiC4Ku/9NLWv5wjied4bEDFJKH5ZgxrviJkOTCflk5IDEdf7vm/q0tPJLlq31XMEiZ4inwGAd1qjBnADER2eQD83qlrrc5h5WQKDfuE4zqsajcbdCerIrWqvEkRcT2Qb0+h23JRR/FUYhsc1m02jMKd5mglKqSsAING6wXGcNzcaja/mqV9p2tKTBBEAa7Xa6x3HMU0E8yjsEXEHMy8logvTHJSs64rOOT4LAM9P2NbHieiDCevItXrPEiR61TLOtzfDaL6PiEZzPdKRcVrr45lZTshNQvc8pmuI+E3f948tQp+T2NjTBBHgPM+7GBFPSgJipHtxGIZBs9k0DYuTQtNzVyHnQACwAhFXzC09p8SWMAwXFfn1cs4eRgI9TxBxZmTmrwPAc+OCNpuc7OgAQOD7/p1p1Je0Dgnm7TjOCjnEAwBTh81pmy9yMGpTPHueIALY8PDwQa1W6ytpkaT9S30vMwc7d+6kDRs2PGg6KGnIL1myZI+BgQF5Wshn/zTqlDp6iRzS34og0czJgCRSs+xwyZayRI+/Oa1JOls9WuvnAcCrmVm2sZMuwh/VVBiGL8/rK2RW2FYEmYRsRiTZ3cJtAHC1kCUijGku92nnQL1e77v//vtfHZFC7oAfksVkCcNw/2azeVcWdee5zoogU0YnIonkK0z113eaSSCL+WsQcbN8JiYmtjiOs5mItkw3YWQt4bruU9rJa/ZptVr7OI7zlMhlRkjRl+Ek20ZET8yw/lxXXRFkmuFZtWrVU8fHxyXCYreujQppZKdIwhAJEeRg0+nCTLqZiF7QhXZz02RFkFmGQilldZ89N6ObzJDLiOjEZFUUX7siyBxjqLV+i1y9bW/d9tJrRukcMm2pWhEkBnJa69OY+bwYomUR+QYiXtrf33/JmjVr7i9Lp2z6URFkBtRksT4xMTGEiKfZAFsSnR8iomSnvTQvB5+dxrUiyBTEo6fFkvaW7Ms6PRg5bu+3iPglRPxKo9H4fo7tTN20iiDRSfrExMTbEVFypf9V6iiXqEIJCsfMXypL3Ku5hqanCaKUOpaZT4mIMRdW1d8fjYC8fjV837e+plsEQHuSIOKOwczDAPAPRRikPNvIzF92XXek0WjclGc7bW3rKYIsW7Zsr/7+/pXyVgUAe9mCVuk9BoHtALB2+/btIxs3bpR/l6b0DEG01v8QPTXEma8qGSDAzDc5jjNSpteu0hPE87xXIKI8Md6QwZyoqpwGgTK9dpWWIENDQ/uFYSjE8HIyi29v5+z7RTuCyO8cx/mdfAPAb+Xbdd0HWq3WdsdxtjPzQ/Pnz9++devW7fPnz3fmz5+/YHx8fIHrugsQcUEYhru+o2j1kv9E7npImrndn5x0F3a9dkXG3NcO+yq+Zfcw85a99957S71eL8SrWCkJopR6EwCMAMAzuzRbvoOIt4ZheKvjOLcsWLDg1nq9Pt4JW5RSk8ki/z46p2c6fxDSRJ8rwzC8stlsGqeZzhrT0hHEMv1zUpxvR8Sr2heKrpk3b941o6OjDyWtME39KNPWq9r3UOTzmhRvTqZpptT1K0T8NjNfO2/evKvWrl17T9oNmNZXGoIMDw8/p9VqyVPjeFMQbOQR8SZmvpyZ/yUIgh/Y1NEtHaWUXKoSsoi37iu6Zccc7coT91/lfj8RfbtbNpaCIFrrk5lZyLFfxkDeAQCXO45zeaPRuDbjtjpSved5r0XEkwHgre01w591pFHzRja2Wq1gbGxM8k12tBSeIFrrs5l5dcaoSRTGLxQtQJwpJrVa7WTHcd7fdk78G1PdDsj/ARElMY9EjPnfDrS3q4nCEmRwcPAg13UbAJBlLu4LEfELvu8LQXqiKKXq7eAlH8lxZ++QiDFBEGzohI2FJIjW+oAo/3lWh34XA0CDiL7XiUHIQxtKKVmTCDHkuwhljIhqWRtaOIJE5xuXAcALMwDnBmZuBEHwzxnUndsqC/DUmBY7uasSxUZOJULMdI0UiiAS2UNC5rQTvTwnzdnGzLKd2Ni8eXNj06ZNrTTrzntdRSXHJFzvdV335evWrftZFlgXhiDRXv4tad/XkFChO3fubKxfv/5/sgA4z3UqpdYAgKSlK3xp+4GdEASBhJBNtRSCIEuXLt1zzz33/JVlAs6ZAPt6dJ/hulQRLUhlSinJslUq/zRmfn8QBEL61EruCbJ48WJ34cKF4pawZ1q9Zub1QRCUMmVYHIy01t9g5uPiyBZE5l4AOEc2GZj5zUEQpJbQJ/cEUUpxyoN0JhF9IuU6C1OdUkq2R99bGINnN/QWRNzg+/5GpdQjafUcxzmk0WjI63jikmuCKKX+GwCekbiXf6pgnJnf0Ws7VJOx01p7zCyHbUUvv2fmfwyCoLm7I0opybArfmZSfj0+Pv7XaUTWzy1BtNZXM7N4oqZRftnOSfjSmeLeptFA3usYGho6KgzDrvk0pYWPRFcRchCRXB94pGitf94OJnHgpP91NRG9Nmm7uSSI1nojM6eVj/zbRJQW0ZLi3RX9er3ev23bNiGHbX74rtg9pVG5P7KciC6Yzhit9R+ZeY/Jf0sjPXXuCKKUOgMA/imlEakT0UdTqquw1XTIXy0zfBBRdjDf5fu+pI+Ytsy0VkXEN/q+Lzt2ViVXBEma0H7Kr8cq3/d332izAqcMSlHSztTPBzqFDSL+aOfOnYtnO6eq1Wp/5TiOkGi6cgUR/a2tvbkhiNb6MLlbkdJZxwoikm2/ni/t2F8/bLvoH1pQIGJN7lqt9jLHcf5tpj4y88m2mzO5IEi9Xneid+RXpjCQy4jo3BTqKXwVnue9AxE/V9COfIqITo9ju9b6FGb+4iyy1xGRlRNmLgjied5ZiJhGQnotcfvjgNoLMkopudRlNTG6jM9pRHR+XBu01u9n5lnPthBxie/7xj8WXSeI1noRM18RF4xZHqOpuxkktamb+lHgitROlDvYl6Pav/aSxzF2UUotb7+aS/rt2coPiOiI2JVGgl0lSL1e32Pr1q3XIqKx4ZM7yswfCYLgY6adL7N8Qd1JjMkhY1ir1U50HOeSGON5ChFJ/snYpasE8TxvBBHfF9va6QW/SERvS1hHqdSjC2X/VaROOY5zfKPRuNzG5miDZ87AGcz82SAIJD127NI1ggwNDR0XhuE3Yls6veBtExMTi9avX785YT2lUldKiSPmI24YBejc24hotkX2rF3QWi9k5l/H6OfvBwYG9jWJUdYVgqxevXrBjh075NUqUQZVx3GObTQa34wBTE+JKKUEk2OK0GlmXp7G/fK4Tq2mc6YrBNFan8XMiXatEPEDvu+ndeJehLkUy8YivV4h4hm+758dq2NzCCmlvgsAL5mrLmbeEASBLOpjlY4TZGho6MAwDOV9UeLK2paLiWixrXKZ9ZRSfy8hivLex7Tv5Hiedw4iLovR798T0V/GkNsl0nGCaK0DZk4SjeLOaN3Rc1dk4wxqQfyurhwYGDimXq+HcfoUR8ZwTRt7t6yjBNFaH8rM8vRw4nR6Opl2UOg3+b5/qa1+2fWUUnKmtCjH/fyl67rHZBFkQSklPmdxQs9+gojOjINRRwnSjjwurspJ0p6dR0RpucHHwadwMkopiTr4xLwanlVwBa31n4dheDIixvHBu4CITo2DUccIopR6NQBcE8eoGWR+246e/vJms1mo/f0E/TVWrdVqz3IcR+IH57W8j4hG0zTO87yTEPEkAJBPf8y6r2wHBYwVkbNjBNFaX8LMEk3ctgwTkYQarcoMCOTZtR0RP+37/tK0Bk9r/Rpm/pBldPoft9NYPz+OLR0hyNDQ0NFhGM542WUuQxHxWt/35QlUlVkQ0Fqfzsy582Rm5h+FYfjqsbExiU6TqKxcufLPWq3WhxIGLL+PiJ4Ux5COEGRyxIk4Rk2VaW8LH9NsNiVXRFVmQSBFr+jJrcgdnWe3t44PsAUfEY/xfT/x+GmtTwAAIceLbG3ZrTcwMDA/zol65gSR92LXdW+del/YoIPnENEKA/meFfU87/z29dRYi88YIEmUkA1EdJnneTVEDGLoTCdyFhF92FL3EbUMQqQ+nYgkmMesJXOCJOzY5jAMX9JsNu+aqyPV3wFS2uK9Loo19ZXJmCql5AkQa2E7SS9xZJHBwcFnOo6zFhGTrF+nmx4S5WbO6P2ZEmRwcHB+X1+fPD0mh2Mxmcsfbd9/knwVVYmBgOd5F0XZomJIP1oEEb8bhuG5QRBMewrfvrp7rGTXilsxM28Pw/DosbGx78fVmSqntT6RmSWuQOrJWJn5b4IguHUu2zIliNb6VGaOfTNsirHioXtoL8eymmvwpv5dKSW+aRIVxqT8JwCcG+cGn4E7ByDikO/7vokhU55YmSby6evre/Lo6Kik4u7eK9aUaHdz2TL179XTwxAxz/PejYgbY6rdiojnLliwYGNclw9JMR1loX36bG1IltogCKx3HRO+lsfpfkhEbhzBzJ4gc0WamMO46ukRZ/SmyERnA7K4nq1IyupPAcBG3/f/aNqM1lpLkqE59I4jItn9Mi4dIIfYtJmIFsYxLjOCKKXk3XFlHCOmkameHhbAyYLWdd07Z1CVOMfydNlIRIkyMs3xZhDbjWOqnSk4ssZF7UYiirVVnAlB6vV637Zt2yR2qs3eefX0iDvMU+Si8ElTM2TdLa9drutujPPOHafpWq12tOM40x38PhCG4UubzeZP4tQzWcbzvEsy2Kma1gxE/Kbv+7LpMGfJhCBKqTcDwKY5W59eoHp6WAInakop2dvff1IVDzLzBY7jyCvVjxNU/ShVpZREEZl68chq7JRS4qNnvWax6NP5RHRaHL1MCKK1vpCZbQIpyP2Ag6dG7o7TkUrmTwjMFgurvbV5qeM4F6ZxXWB4ePhJrVbrRgDYL8L+tr6+vsNHR0cfMhmLblwPRsR/8n3/A3HsTJ0gg4OD+7quK69Xe8UxYLIMM385CIK/M9Wr5P8fAaWUrPtmjUksZx4AcJ7v+59Ngt3Q0NC7wzDcvWt26kyR12dqQykl2YrFfaTTpXsXpjzPW4GIY5Y9PlFcGyx1KzXZFVm58uCJiYlYr1KIKIHlzvZ9X85CrIrned8CgDAIgljv9LsbUUp9GQDeatVoMqXuXrlVSgnobzLtQ/sizU3tLKVZ5D43NaXw8p7n3YmIsU6fEXEHM69ptVqfGBsbe9i0822CHB4RRIJkxyop53+J1eZuoa4GbdBaP66d2F12oYwDMqQZ4cIIsRIKW26XygQ/u31PIk6EQmvUlFLrAGDIuoKEil0N++N53msR8UqLPmzv6+s7eHR0tArEYAHeVJXolt3FllWd39/fr0ZGRh6w1J9RrR276iPtP3bTt667geM8z/s4Isa6DD8ZxbYz45eCIJBwNVVJAYHBwcG/cF33bgCYb1nddRMTE6evX7/+Z5b6j1FTSslTQ54eXStdDz2qlLoJAA4xRcA2NL1pO70kr5SStGNvSNBnOW0/iYgSJ/409BFLYPKcqt0LXm0QH3VqLx6aN2/eAWvXrr1nzu5VArERSCFIxu623kFEF8ZueIpgmmn1bG0QPUnl5vu+caat1M5BYmT5mbZ/cnjV9ss33vVKAlav6CqlxCkxjUAJkpdIm+LWdh95frQmfbKpbtryiPge3/fjejo/0nxqBFFKSWYnz7RjzHx6EAQykFVJGYHBwcGDXNeVW3NPSKHqm4nIKNh4SjccE5tu+/TY9eRJ3HpUgdb6P5j5pYb1hRMTEwfMlsHUsL5KfAoCWuuPMnPiO+GTqn1iHG/ghN7cqY6j7dMjVYIopXYCQJ9hz2JlMTWssxKfhIBEHGRmeYrYXnt+DJ5hGB44WwA/pdTbAeDzORmIy4jI+j57Kk+QwcHBF7iuK45rpsXK+9O0kV6X9zxvWcyQnLGhchznyEajIT5djyrRuuOW2BVlKyg7ceJ3dbNtM6kQRGu9lJmN1xGI+Drf920OFm3727N6SilxTFySMgCP8Z3TWt/IzEZrlZRtmlxd4qzHqRDE87zzEDGWf/0k6/9ARAsyBKeqegoCSimJrH9YmsAw81uCINh19yfluFyJzExrdzQVgiil5JEaK9bppF5X649EU8Bcub3tuw8A/Lx9ov14c+2ZNYQkiPiUHOVF/Pn8+fMPX7Nmzf1J+5mYIBL7ynXdHRaGpB7p28KGnlPxPO8ViHhdmTuOiM/yfX+mu/lGXU9MEK31y5n5eqNWxT86DA9tNps/MtWr5JMjoJR6FwB8OnlN+avBcZyXNBoN62B1U3uUmCCWTmix4xLlbwjKYZFqx9cBAOvAbnlEwXXd565bt+6nadqWmCCe540homlw6RuISC7aVKWLCGitD4tS4nXRilSa/o3ruovSJodYlpggWuuLmVmy+5iUKmK7CVoZyg4PD+/farUk5u7BGTaTZdU3u67791mQIxWCxM1PPQUh4wv+WSLc63UvWbJkj4GBAXHkkxPwIhXx/5PD5kSB8GbrcOIniFJKbgE+zQRVRDzY9/3bTHQq2ewRyJP/1By9lZNxIUbmAT7SIIhc9I+bPFH6/Uci2jP74a5asEEgCvonXtkvs9HvgE7mT43JfUhEkOXLl+89b968ew1BuZ6IXmmoU4l3GIEofJMQxSZ8bOrWIuKlYRieHwRB7BwlaRiRiCBa6+cx85xJSKYY2iCi4TSMr+rIFgGJnhiGocfMsiVsHAgwJesuCsPwM81mM0kKcWtTEhFEKfUqALjWpHVm9oIgaJroVLLdRaBWqx3sOI4cLkr83Od1yJrzHcf5zHQewx1qf1cz3SDI22dK89XJjldt2SHQDhd6SPvz5ZlxAAABCElEQVR+yesQUcgiH9M7QDM1/Gv5sZWU35KAJ06CTbsemGl1gyDHd/o90gySSjouAlGaC0nseSQAiCPkUyd97z1DPbKpc9+kz9WIeJXv+zfEbbeTcokI0klDq7aKhUC9Xu/ftm3bbsI8vHPnzvuY+b4NGzY8WKSeVAQp0mhVtnYcgYogHYe8arBICFQEKdJoVbZ2HIGKIB2HvGqwSAhUBCnSaFW2dhyBiiAdh7xqsEgIVAQp0mhVtnYcgYogHYe8arBICFQEKdJoVbZ2HIGKIB2HvGqwSAhUBCnSaFW2dhyBiiAdh7xqsEgIVAQp0mhVtnYcgYogHYe8arBICFQEKdJoVbZ2HIH/A3Vd3m5QEnFcAAAAAElFTkSuQmCC;strokeWidth=1.5;" parent="nJHyJpiOqpMIGT2mlFp9-161" vertex="1">
          <mxGeometry x="8.921231527093552" y="17.033201970443358" width="31.40394088669951" height="31.40394088669951" as="geometry" />
        </mxCell>
      </root>
    </mxGraphModel>
  </diagram>
</mxfile>
